<?xml version="1.0" encoding="UTF-8"?>
<svg version="1.1" xmlns="http://www.w3.org/2000/svg" width="240" height="241">
<path d="M0 0 C1.19882812 1.07507812 1.19882812 1.07507812 2.421875 2.171875 C13.75434489 12.86136787 21.70590735 25.87358899 28 40 C28.72316406 41.58167969 28.72316406 41.58167969 29.4609375 43.1953125 C41.39845075 71.48360148 40.3286906 105.63232546 28.92724609 133.83691406 C24.06701084 145.17490361 17.91984937 155.52236207 10 165 C9.16855469 165.99515625 8.33710938 166.9903125 7.48046875 168.015625 C-2.80367079 179.93271269 -15.08370794 188.77741137 -29 196 C-29.89976562 196.47050781 -30.79953125 196.94101563 -31.7265625 197.42578125 C-37.15327112 200.073556 -42.72886655 201.95978721 -48.5 203.6875 C-49.17587158 203.89012451 -49.85174316 204.09274902 -50.5480957 204.30151367 C-81.51336382 213.15981988 -114.57232861 208.39736237 -142.63134766 193.16625977 C-169.64697154 177.88892804 -190.78295217 151.63589251 -199.2890625 121.67578125 C-204.6316153 101.42281647 -205.72567496 77.33999853 -200 57 C-199.6596875 55.77152344 -199.319375 54.54304688 -198.96875 53.27734375 C-189.59242248 22.64589541 -168.20002997 -3.97372133 -139.87304688 -19.13867188 C-93.28215854 -42.664764 -38.40580158 -35.11974369 0 0 Z " fill="#2178FB" transform="translate(203,33)"/>
<path d="M0 0 C1.32 0 2.64 0 4 0 C4.81277669 1.62555339 5.62553759 3.25111467 6.43823242 4.87670898 C7.15428137 6.30864224 7.87059587 7.74044273 8.5871582 9.17211914 C10.44314691 12.88126422 12.29519225 16.59224473 14.13671875 20.30859375 C14.82008989 21.68500638 15.50367923 23.0613107 16.1875 24.4375 C16.51878906 25.10555664 16.85007812 25.77361328 17.19140625 26.46191406 C19.36195793 30.80952909 21.66169342 35.04883786 24.1875 39.203125 C25 41 25 41 25 45 C25.66 45 26.32 45 27 45 C27.24645264 45.52319824 27.49290527 46.04639648 27.74682617 46.58544922 C28.8925182 49.01586707 30.03986014 51.44550132 31.1875 53.875 C31.59734131 54.74382812 32.00718262 55.61265625 32.42944336 56.5078125 C34.92796898 61.78846146 37.48500148 67.02559202 40.22265625 72.1875 C41 74 41 74 41 77 C41.66 77 42.32 77 43 77 C43.556875 78.1859375 44.11375 79.371875 44.6875 80.59375 C51.07170049 94.15453629 57.62327667 107.59216416 64.6875 120.8125 C74 138.24150808 74 138.24150808 74 141 C66.6634778 141.30352875 59.328343 141.53331883 51.9867754 141.67355824 C48.57589736 141.74093567 45.16936295 141.83197586 41.76098633 141.98071289 C16.69791405 143.04709742 16.69791405 143.04709742 9.31608582 136.29142761 C6.91890771 133.66180432 4.91453224 131.00155965 3 128 C0.08637623 129.08000481 -0.97456184 129.9626026 -2.75317383 132.57739258 C-6.13435541 137.32168648 -9.08001334 140.41739913 -14.96087646 141.59075928 C-23.17511851 142.3445711 -31.41027908 142.05723614 -39.64190674 141.75531006 C-43.06716175 141.64176513 -46.49331829 141.59233238 -49.91992188 141.53710938 C-56.61561907 141.41640966 -63.30731264 141.23281124 -70 141 C-68.53646982 136.43354658 -66.70284388 132.3668336 -64.375 128.1875 C-61.38330412 122.70820352 -58.61416248 117.16876154 -56 111.5 C-53.19764911 105.4341779 -50.19556254 99.53091561 -47 93.6640625 C-44.49112635 89.01872613 -42.21433317 84.29195537 -40 79.5 C-37.19712652 73.43440661 -34.19557949 67.53094673 -31 61.6640625 C-28.49112635 57.01872613 -26.21433317 52.29195537 -24 47.5 C-21.19991121 41.44043286 -18.20318046 35.54169657 -15.00878906 29.68164062 C-12.04145113 24.19046069 -9.38216902 18.5728578 -6.7890625 12.89648438 C-4.74323586 8.44810083 -2.48402591 4.22064579 0 0 Z " fill="#010206" transform="translate(118,40)"/>
<path d="M0 0 C0.66 0 1.32 0 2 0 C7.30967227 9.6304371 12.15758546 19.43076177 16.85400391 29.37402344 C19.65419991 35.27274142 22.57342377 41.07385799 25.6875 46.8125 C30.3003287 55.31966436 34.18482678 64.1117899 38 73 C35.77252674 73.13563775 33.54265677 73.23227853 31.3125 73.3125 C30.07113281 73.37050781 28.82976562 73.42851562 27.55078125 73.48828125 C23.01568924 72.86464373 21.91307612 71.45182833 19 68 C17.16810278 66.14441445 15.33473829 64.29027644 13.5 62.4375 C12.5821875 61.50808594 11.664375 60.57867187 10.71875 59.62109375 C8.06576417 56.9808167 8.06576417 56.9808167 5.21875 54.78515625 C3 53 3 53 2 51 C-1.65604867 52.50712854 -3.67917587 54.62111314 -6.2734375 57.5703125 C-7.09972656 58.46621094 -7.92601563 59.36210937 -8.77734375 60.28515625 C-10.49536466 62.16335354 -12.18878774 64.06438018 -13.85546875 65.98828125 C-17.64681259 70.02422792 -20.19425749 72.70610691 -25.78613281 73.61621094 C-29.24865366 73.61708289 -32.56801664 73.44309791 -36 73 C-30.89297336 61.25981623 -25.44927082 49.80608886 -19.40625 38.51953125 C-16.15687 32.45015361 -13.10497907 26.28560804 -10.05029297 20.11669922 C-8.04369884 16.07272639 -6.02034653 12.03711441 -4 8 C-3.22910431 6.45836451 -2.45826523 4.91670072 -1.6875 3.375 C-1.130625 2.26125 -0.57375 1.1475 0 0 Z " fill="#2277F6" transform="translate(119,86)"/>
<path d="M0 0 C1.12886891 3.78691486 0.67112339 5.39389163 -1 9 C-1.66 10.65 -2.32 12.3 -3 14 C14.49 14 31.98 14 50 14 C50.33 13.34 50.66 12.68 51 12 C51.66 12.66 52.32 13.32 53 14 C51 16 51 16 48.55758667 16.24050903 C47.01870285 16.2338472 47.01870285 16.2338472 45.44873047 16.22705078 C43.70715164 16.22682419 43.70715164 16.22682419 41.9303894 16.22659302 C40.67203278 16.21627045 39.41367615 16.20594788 38.1171875 16.1953125 C36.83264679 16.1924826 35.54810608 16.18965271 34.22463989 16.18673706 C30.80837233 16.17909809 27.39227463 16.15944752 23.97607422 16.1373291 C20.49058327 16.11687624 17.0050649 16.10773655 13.51953125 16.09765625 C6.67961769 16.07620175 -0.160183 16.04206271 -7 16 C-5.70629427 12.02269652 -4.2866389 8.34766522 -2.375 4.625 C-1.92898437 3.75101563 -1.48296875 2.87703125 -1.0234375 1.9765625 C-0.68570313 1.32429687 -0.34796875 0.67203125 0 0 Z " fill="#000622" transform="translate(55,165)"/>
<path d="M0 0 C0.33 0 0.66 0 1 0 C1 2.31 1 4.62 1 7 C-1.475 6.505 -1.475 6.505 -4 6 C-4 6.66 -4 7.32 -4 8 C-11.3973076 8.04629419 -18.79458407 8.08185426 -26.19200706 8.10362434 C-29.62675459 8.1140717 -33.06140317 8.12824805 -36.49609375 8.15087891 C-40.44269638 8.17672063 -44.38925863 8.18646493 -48.3359375 8.1953125 C-49.57242035 8.20563507 -50.8089032 8.21595764 -52.08285522 8.22659302 C-53.22388702 8.22674408 -54.36491882 8.22689514 -55.54052734 8.22705078 C-56.548685 8.231492 -57.55684265 8.23593323 -58.59555054 8.24050903 C-61 8 -61 8 -63 6 C-62.28447464 5.99857498 -61.56894928 5.99714996 -60.83174133 5.99568176 C-54.07827909 5.97782919 -47.32542935 5.93614987 -40.57227802 5.86790943 C-37.10058825 5.83366304 -33.62933737 5.80853332 -30.1574707 5.80444336 C-26.16304533 5.79933406 -22.16993294 5.75420534 -18.17578125 5.70703125 C-16.93290848 5.7109639 -15.69003571 5.71489655 -14.40950012 5.71894836 C-7.44544219 5.8592716 -7.44544219 5.8592716 -1.73901367 2.45581055 C-1.16513916 1.64539307 -0.59126465 0.83497559 0 0 Z " fill="#3172E2" transform="translate(111,175)"/>
<path d="M0 0 C0.99 0.33 1.98 0.66 3 1 C3 1.66 3 2.32 3 3 C3.99 3.33 4.98 3.66 6 4 C7.11222571 6.65967018 8.07014739 9.27749886 9 12 C12.33860268 22.88103484 12.33860268 22.88103484 19 31 C19.89662523 32.95130939 20.71971323 34.93682569 21.5 36.9375 C23.14743877 41.35910813 23.14743877 41.35910813 26 45 C26.61287697 47.31956908 27.0144199 49.64296818 27.4375 52.00390625 C27.623125 52.66261719 27.80875 53.32132813 28 54 C28.66 54.33 29.32 54.66 30 55 C29.34 55.66 28.68 56.32 28 57 C27.32591692 55.73308493 26.66099503 54.46129251 26 53.1875 C25.443125 52.12595703 25.443125 52.12595703 24.875 51.04296875 C24 49 24 49 24 46 C23.34 46 22.68 46 22 46 C21.6596875 45.2471875 21.319375 44.494375 20.96875 43.71875 C18.66190664 38.66332732 16.33993701 33.63251141 13.8203125 28.6796875 C13.45615234 27.96361328 13.09199219 27.24753906 12.71679688 26.50976562 C11.99685714 25.10208381 11.27170435 23.69705429 10.54101562 22.29492188 C8 17.3268153 8 17.3268153 8 14 C7.34 14 6.68 14 6 14 C4 9.33333333 2 4.66666667 0 0 Z " fill="#2D6AD1" transform="translate(137,71)"/>
<path d="M0 0 C0.66 0 1.32 0 2 0 C10.6309795 15.56036446 10.6309795 15.56036446 13 24 C12.01 23.67 11.02 23.34 10 23 C9.05078125 20.93359375 9.05078125 20.93359375 8.3125 18.4375 C8.06113281 17.61121094 7.80976562 16.78492187 7.55078125 15.93359375 C7.36902344 15.29550781 7.18726562 14.65742187 7 14 C6.34 14 5.68 14 5 14 C4.67 12.02 4.34 10.04 4 8 C1.69 8.66 -0.62 9.32 -3 10 C-3 10.66 -3 11.32 -3 12 C-3.66 12 -4.32 12 -5 12 C-3.68938409 7.76570244 -2.05643741 3.92592596 0 0 Z " fill="#2970E5" transform="translate(119,86)"/>
<path d="M0 0 C2.8879624 2.4899148 4.16481427 5.15894659 5.6875 8.625 C6.12449219 9.60726562 6.56148437 10.58953125 7.01171875 11.6015625 C8 14 8 14 8 15 C-11.14 15 -30.28 15 -50 15 C-50 14.67 -50 14.34 -50 14 C-23.27 13.505 -23.27 13.505 4 13 C3.34 10.03 2.68 7.06 2 4 C1.34 4 0.68 4 0 4 C0 2.68 0 1.36 0 0 Z " fill="#010F54" transform="translate(184,166)"/>
<path d="M0 0 C0.99 0.33 1.98 0.66 3 1 C3.33 1.99 3.66 2.98 4 4 C2.35 4 0.7 4 -1 4 C-1.0928125 4.8353125 -1.0928125 4.8353125 -1.1875 5.6875 C-2.35672428 9.01529218 -4.35322804 10.73133832 -7 13 C-7.99 13 -8.98 13 -10 13 C-10.928125 14.3921875 -10.928125 14.3921875 -11.875 15.8125 C-14.03353576 19.05030363 -15.48556326 20.42775198 -19 22 C-19.66 21.67 -20.32 21.34 -21 21 C-14.07 14.07 -7.14 7.14 0 0 Z " fill="#051737" transform="translate(119,136)"/>
<path d="M0 0 C1.32 0 2.64 0 4 0 C7 5.75 7 5.75 7 8 C6.01 8 5.02 8 4 8 C3.34 7.34 2.68 6.68 2 6 C1.34 6.66 0.68 7.32 0 8 C-0.99 8 -1.98 8 -3 8 C-3.12375 8.70125 -3.2475 9.4025 -3.375 10.125 C-4.03838345 13.17656387 -4.97211955 16.05340938 -6 19 C-6.99 19 -7.98 19 -9 19 C-7.6077541 14.37324343 -5.70479016 10.35313769 -3.375 6.125 C-2.74335937 4.97257812 -2.11171875 3.82015625 -1.4609375 2.6328125 C-0.97882813 1.76398437 -0.49671875 0.89515625 0 0 Z " fill="#000B1E" transform="translate(118,40)"/>
<path d="M0 0 C0.33 0 0.66 0 1 0 C1 1.65 1 3.3 1 5 C19.15 5 37.3 5 56 5 C56 5.33 56 5.66 56 6 C36.86 6 17.72 6 -2 6 C-1.34 4.02 -0.68 2.04 0 0 Z " fill="#00135C" transform="translate(50,175)"/>
<path d="M0 0 C0.99 0 1.98 0 3 0 C3 0.99 3 1.98 3 3 C3.66 3 4.32 3 5 3 C5.33 5.31 5.66 7.62 6 10 C6.99 10 7.98 10 9 10 C9.15855469 10.60585937 9.31710938 11.21171875 9.48046875 11.8359375 C11.08753282 17.60716206 13.18685509 22.63911127 16.109375 27.87109375 C17 30 17 30 16 33 C15.59273682 32.14003418 15.59273682 32.14003418 15.17724609 31.26269531 C7.73700668 15.55892276 7.73700668 15.55892276 0 0 Z " fill="#00103B" transform="translate(122,89)"/>
<path d="M0 0 C0.66 0.33 1.32 0.66 2 1 C1.41992188 2.08796875 0.83984375 3.1759375 0.2421875 4.296875 C-4.28694054 12.81047066 -8.74714773 21.34419479 -13 30 C-13.144375 29.38125 -13.28875 28.7625 -13.4375 28.125 C-13.93152225 25.96741678 -13.93152225 25.96741678 -15 24 C-13.68 24 -12.36 24 -11 24 C-11 21.69 -11 19.38 -11 17 C-10.01 16.67 -9.02 16.34 -8 16 C-7.19787372 14.12612784 -7.19787372 14.12612784 -6.8125 11.9375 C-6.57466797 10.83728516 -6.57466797 10.83728516 -6.33203125 9.71484375 C-6.22246094 9.14894531 -6.11289063 8.58304688 -6 8 C-5.01 8 -4.02 8 -3 8 C-2.87625 7.05125 -2.7525 6.1025 -2.625 5.125 C-2 2 -2 2 0 0 Z " fill="#2972DC" transform="translate(99,75)"/>
<path d="M0 0 C1.1197034 3.7829979 0.74786637 5.41687395 -1 9 C-1.515625 9.845625 -2.03125 10.69125 -2.5625 11.5625 C-4.08196891 13.87540056 -4.08196891 13.87540056 -4.5625 16.25 C-4.706875 16.8275 -4.85125 17.405 -5 18 C-5.66 18.33 -6.32 18.66 -7 19 C-7.2475 20.2375 -7.2475 20.2375 -7.5 21.5 C-7.7475 22.7375 -7.7475 22.7375 -8 24 C-8.66 24.33 -9.32 24.66 -10 25 C-11.05352843 27.30965848 -12.05719096 29.6429774 -13 32 C-13.66 31.67 -14.32 31.34 -15 31 C-13.43918921 27.70752985 -11.87603171 24.4161788 -10.3125 21.125 C-9.87744141 20.2071875 -9.44238281 19.289375 -8.99414062 18.34375 C-6.06954915 12.19127609 -3.0702866 6.08106833 0 0 Z " fill="#02163F" transform="translate(103,69)"/>
<path d="M0 0 C1 2 1 2 0.42675781 3.73999023 C0.10545898 4.42262939 -0.21583984 5.10526855 -0.546875 5.80859375 C-0.8975 6.55560547 -1.248125 7.30261719 -1.609375 8.07226562 C-1.98578125 8.85279297 -2.3621875 9.63332031 -2.75 10.4375 C-3.1109375 11.21416016 -3.471875 11.99082031 -3.84375 12.79101562 C-5.56754216 16.41660023 -7.00597736 19.26045861 -10 22 C-9.41171618 18.97454037 -8.7473202 15.98928079 -8 13 C-7.65939189 11.33480481 -7.32441604 9.66842534 -7 8 C-5.68 8 -4.36 8 -3 8 C-3 5.69 -3 3.38 -3 1 C-2.01 0.67 -1.02 0.34 0 0 Z " fill="#2971DD" transform="translate(59,155)"/>
<path d="M0 0 C0.33 1.65 0.66 3.3 1 5 C-4.63281599 5.2396943 -9.54538831 4.38529821 -15 3 C-15 2.67 -15 2.34 -15 2 C-9.75614911 0.2520497 -5.52677733 -0.19392201 0 0 Z " fill="#2E77DF" transform="translate(105,235)"/>
<path d="M0 0 C0 1.32 0 2.64 0 4 C0.66 4.33 1.32 4.66 2 5 C-1.96 5.66 -5.92 6.32 -10 7 C-9.67 5.02 -9.34 3.04 -9 1 C-6.04335481 -0.4783226 -3.25770263 -0.06032783 0 0 Z " fill="#2B78E8" transform="translate(144,234)"/>
<path d="M0 0 C1.11667102 3.76477658 0.77699869 5.44600261 -1 9 C-1.474375 9.61875 -1.94875 10.2375 -2.4375 10.875 C-4.54253431 13.73784665 -5.67009883 16.7069114 -7 20 C-7.66 20 -8.32 20 -9 20 C-7.55676531 15.26210835 -5.62773267 11.01141849 -3.375 6.625 C-2.88773437 5.66400391 -2.88773437 5.66400391 -2.390625 4.68359375 C-1.59742593 3.12052499 -0.79922969 1.55999378 0 0 Z " fill="#2D6ED3" transform="translate(105,114)"/>
<path d="M0 0 C0.71484375 1.546875 0.71484375 1.546875 1 4 C-0.05391226 6.53857885 -1.13965574 8.84495527 -2.4375 11.25 C-2.77587891 11.8996875 -3.11425781 12.549375 -3.46289062 13.21875 C-4.29786887 14.81814494 -5.14753114 16.40985859 -6 18 C-6.66 18 -7.32 18 -8 18 C-6.65150163 13.64029169 -4.95092154 9.68658562 -2.875 5.625 C-2.33617188 4.56539062 -1.79734375 3.50578125 -1.2421875 2.4140625 C-0.83226563 1.61742187 -0.42234375 0.82078125 0 0 Z " fill="#276AD0" transform="translate(95,134)"/>
<path d="M0 0 C2 3 2 3 2 5 C2.66 5 3.32 5 4 5 C4.86580287 6.93232821 5.71729941 8.87107194 6.5625 10.8125 C7.27599609 12.43091797 7.27599609 12.43091797 8.00390625 14.08203125 C9 17 9 17 8 20 C6.46276266 17.23796468 4.94815839 14.46414848 3.4375 11.6875 C2.78104492 10.50897461 2.78104492 10.50897461 2.11132812 9.30664062 C1.70205078 8.54931641 1.29277344 7.79199219 0.87109375 7.01171875 C0.48880615 6.31522217 0.10651855 5.61872559 -0.28735352 4.90112305 C-1 3 -1 3 0 0 Z " fill="#2F6FD7" transform="translate(124,41)"/>
<path d="M0 0 C0.99 0.99 1.98 1.98 3 3 C-1.26041226 6.76354036 -5.51848911 10.49881962 -10 14 C-9.6875 12.0625 -9.6875 12.0625 -9 10 C-8.01 9.67 -7.02 9.34 -6 9 C-5.64587656 7.67203709 -5.31478446 6.33783393 -5 5 C-3.5625 3.25 -3.5625 3.25 -2 2 C-1.34 2 -0.68 2 0 2 C0 1.34 0 0.68 0 0 Z " fill="#030B2C" transform="translate(118,164)"/>
<path d="M0 0 C5.61 0 11.22 0 17 0 C16.67 0.99 16.34 1.98 16 3 C11.05 3 6.1 3 1 3 C0.67 2.01 0.34 1.02 0 0 Z " fill="#01153E" transform="translate(142,158)"/>
<path d="M0 0 C1 3 1 3 -0.43359375 6.35546875 C-1.09148807 7.6380304 -1.75989743 8.91524057 -2.4375 10.1875 C-2.77587891 10.84169922 -3.11425781 11.49589844 -3.46289062 12.16992188 C-4.29969098 13.78459299 -5.14869746 15.39292763 -6 17 C-6.33 17 -6.66 17 -7 17 C-7.1875 13.625 -7.1875 13.625 -7 10 C-6.01 9.34 -5.02 8.68 -4 8 C-3.29618843 6.01276732 -2.6288189 4.01222047 -2 2 C-1.34 1.34 -0.68 0.68 0 0 Z " fill="#296FD6" transform="translate(71,131)"/>
<path d="M0 0 C0.66 0 1.32 0 2 0 C2 0.99 2 1.98 2 3 C2.99 3.33 3.98 3.66 5 4 C7.12710211 8.0966411 8.42160623 11.36233145 8 16 C4.73435552 13.3472624 3.73529921 10.19635729 2.3125 6.3125 C1.87550781 5.13300781 1.43851563 3.95351562 0.98828125 2.73828125 C0.66214844 1.83464844 0.33601562 0.93101562 0 0 Z " fill="#2D68CC" transform="translate(170,136)"/>
<path d="M0 0 C0.66 0.33 1.32 0.66 2 1 C-0.64 5.95 -3.28 10.9 -6 16 C-6.33 16 -6.66 16 -7 16 C-7.1875 13.125 -7.1875 13.125 -7 10 C-6.01 9.34 -5.02 8.68 -4 8 C-2.94647157 5.69034152 -1.94280904 3.3570226 -1 1 C-0.67 0.67 -0.34 0.34 0 0 Z " fill="#2B71D5" transform="translate(83,107)"/>
<path d="M0 0 C0.66 0.33 1.32 0.66 2 1 C-0.64 6.28 -3.28 11.56 -6 17 C-7.15941038 13.52176885 -6.70820884 11.54104422 -6 8 C-5.01 8 -4.02 8 -3 8 C-2.814375 6.576875 -2.814375 6.576875 -2.625 5.125 C-2 2 -2 2 0 0 Z " fill="#296DD0" transform="translate(99,75)"/>
<path d="M0 0 C0.93423645 3.01031744 1.04449911 3.86650268 0 7 C-0.66 7 -1.32 7 -2 7 C-2.12375 7.70125 -2.2475 8.4025 -2.375 9.125 C-3.03838345 12.17656387 -3.97211955 15.05340938 -5 18 C-5.99 18 -6.98 18 -8 18 C-6.65150163 13.64029169 -4.95092154 9.68658562 -2.875 5.625 C-2.33617188 4.56539062 -1.79734375 3.50578125 -1.2421875 2.4140625 C-0.83226563 1.61742187 -0.42234375 0.82078125 0 0 Z " fill="#031643" transform="translate(117,41)"/>
<path d="M0 0 C0.99928333 2.698065 1.03624754 3.88010429 0.1875 6.6875 C-1 9 -1 9 -3 10 C-3.33 10.99 -3.66 11.98 -4 13 C-4.66 13 -5.32 13 -6 13 C-4.58707905 8.1725201 -2.57025846 4.2837641 0 0 Z " fill="#02163F" transform="translate(67,142)"/>
<path d="M0 0 C0.66 0.33 1.32 0.66 2 1 C-0.31 5.62 -2.62 10.24 -5 15 C-6.09658936 11.71023192 -5.79953138 10.28696233 -5 7 C-4.34 7 -3.68 7 -3 7 C-2.67 5.35 -2.34 3.7 -2 2 C-1.34 2 -0.68 2 0 2 C0 1.34 0 0.68 0 0 Z " fill="#010C38" transform="translate(114,93)"/>
<path d="M0 0 C-0.7425 0.268125 -1.485 0.53625 -2.25 0.8125 C-5.02136333 1.8599379 -5.02136333 1.8599379 -7.0625 3.6875 C-9 5 -9 5 -11.25 4.6875 C-11.8275 4.460625 -12.405 4.23375 -13 4 C-13 3.34 -13 2.68 -13 2 C-11.5882217 1.46605821 -10.17029756 0.94834896 -8.75 0.4375 C-7.96109375 0.14746094 -7.1721875 -0.14257812 -6.359375 -0.44140625 C-3.80896548 -1.04522837 -2.44677771 -0.8473932 0 0 Z " fill="#207EEC" transform="translate(89,6)"/>
<path d="M0 0 C0.66 0.33 1.32 0.66 2 1 C0.02 4.96 -1.96 8.92 -4 13 C-5.31223496 9.06329512 -4.24296256 6.87511856 -3 3 C-2.01 3 -1.02 3 0 3 C0 2.01 0 1.02 0 0 Z " fill="#2C77DD" transform="translate(112,48)"/>
<path d="M0 0 C0.99 0 1.98 0 3 0 C3.28875 1.2375 3.5775 2.475 3.875 3.75 C4.61334794 6.72448742 5.44474933 9.333856 7 12 C6.01 12 5.02 12 4 12 C2.18757677 7.9811485 0.66498383 4.38889325 0 0 Z " fill="#2B76E7" transform="translate(165,124)"/>
<path d="M0 0 C2.64 1.98 5.28 3.96 8 6 C4.71023192 7.09658936 3.28696233 6.79953138 0 6 C0 4.02 0 2.04 0 0 Z " fill="#2379EB" transform="translate(193,25)"/>
<path d="M0 0 C1.32 0.33 2.64 0.66 4 1 C4.33 3.97 4.66 6.94 5 10 C2.35534962 6.8745041 1.15585285 3.91211733 0 0 Z " fill="#01092B" transform="translate(152,148)"/>
<path d="M0 0 C0.33 0.99 0.66 1.98 1 3 C0.3503125 3.5878125 0.3503125 3.5878125 -0.3125 4.1875 C-2.13175226 5.99843418 -2.13175226 5.99843418 -3.4375 8.5625 C-5.13931759 11.21733544 -6.20146424 11.75301384 -9 13 C-8.06398754 11.58235006 -7.1261208 10.16592432 -6.1875 8.75 C-5.66542969 7.96109375 -5.14335937 7.1721875 -4.60546875 6.359375 C-3.12865878 4.18907519 -1.59310127 2.08586232 0 0 Z " fill="#2579E9" transform="translate(28,42)"/>
<path d="M0 0 C2.67901932 2.31881505 3.66204403 4.31814468 4.6875 7.6875 C4.93886719 8.49574219 5.19023437 9.30398437 5.44921875 10.13671875 C5.63097656 10.75160156 5.81273437 11.36648437 6 12 C3 11 3 11 1.3125 7.6875 C0 4 0 4 0 0 Z " fill="#2765C9" transform="translate(126,98)"/>
<path d="M0 0 C1.89213369 2.38573379 3.02391783 4.07175348 4 7 C4.66 7.33 5.32 7.66 6 8 C6.625 10.5625 6.625 10.5625 7 13 C6.34 13 5.68 13 5 13 C4.15930585 11.39967863 3.32768495 9.79458829 2.5 8.1875 C1.80390625 6.84751953 1.80390625 6.84751953 1.09375 5.48046875 C0 3 0 3 0 0 Z " fill="#2D72E3" transform="translate(150,94)"/>
<path d="M0 0 C0.66 0 1.32 0 2 0 C0.86726461 4.44380808 -0.28317615 8.26436721 -3 12 C-3.66 12 -4.32 12 -5 12 C-3.68938409 7.76570244 -2.05643741 3.92592596 0 0 Z " fill="#3766D4" transform="translate(119,86)"/>
<path d="M0 0 C2.64 0 5.28 0 8 0 C8 0.99 8 1.98 8 3 C5.03 2.67 2.06 2.34 -1 2 C-0.67 1.34 -0.34 0.68 0 0 Z " fill="#3C74CB" transform="translate(97,237)"/>
<path d="M0 0 C0.33 0 0.66 0 1 0 C1 2.31 1 4.62 1 7 C-1.97 6.505 -1.97 6.505 -5 6 C-3.35830472 3.97945196 -1.69088222 1.97956942 0 0 Z " fill="#2F6CDB" transform="translate(111,175)"/>
<path d="M0 0 C0.99 0 1.98 0 3 0 C1.68938409 4.23429756 0.05643741 8.07407404 -2 12 C-3.04449911 8.86650268 -2.93423645 8.01031744 -2 5 C-1.34 5 -0.68 5 0 5 C0 3.35 0 1.7 0 0 Z " fill="#011037" transform="translate(101,116)"/>
<path d="M0 0 C1.65 0 3.3 0 5 0 C5 1.32 5 2.64 5 4 C4.34 4 3.68 4 3 4 C3 3.34 3 2.68 3 2 C2.34 2 1.68 2 1 2 C0.34 3.98 -0.32 5.96 -1 8 C-2.2077558 4.37673261 -1.54311128 3.35853631 0 0 Z " fill="#050936" transform="translate(118,84)"/>
<path d="M0 0 C6.625 -0.25 6.625 -0.25 10 2 C6.7 2.33 3.4 2.66 0 3 C0 2.01 0 1.02 0 0 Z " fill="#3675CF" transform="translate(136,237)"/>
<path d="M0 0 C0.66 0 1.32 0 2 0 C2.33 1.98 2.66 3.96 3 6 C3.99 6 4.98 6 6 6 C6 6.66 6 7.32 6 8 C3.08482708 6.92598892 1.22189824 6.22189824 -1 4 C-0.625 1.875 -0.625 1.875 0 0 Z " fill="#267AE7" transform="translate(56,218)"/>
<path d="M0 0 C1.9375 0.375 1.9375 0.375 4 1 C4.33 1.66 4.66 2.32 5 3 C5.99 3.33 6.98 3.66 8 4 C8.33 5.65 8.66 7.3 9 9 C7.87105124 8.06725891 6.74699124 7.12859878 5.625 6.1875 C4.99851562 5.66542969 4.37203125 5.14335937 3.7265625 4.60546875 C2 3 2 3 0 0 Z " fill="#000D3D" transform="translate(123,169)"/>
<path d="M0 0 C1.98 0 3.96 0 6 0 C6.66 1.98 7.32 3.96 8 6 C4.63408134 4.55746343 2.48952921 2.66735273 0 0 Z " fill="#2B75F1" transform="translate(39,210)"/>
<path d="M0 0 C2.02054804 1.64169528 4.02043058 3.30911778 6 5 C6 5.33 6 5.66 6 6 C4.02 6 2.04 6 0 6 C0 4.02 0 2.04 0 0 Z " fill="#296BD6" transform="translate(128,175)"/>
<path d="M0 0 C0.66 0 1.32 0 2 0 C4.67927341 4.01891012 4.15601248 6.24161923 4 11 C1.54176828 7.31265242 0.98757384 4.30300029 0 0 Z " fill="#257BE2" transform="translate(3,151)"/>
<path d="M0 0 C1 3 1 3 0.22265625 5.04296875 C-0.16019531 5.75066406 -0.54304688 6.45835937 -0.9375 7.1875 C-1.31777344 7.90292969 -1.69804688 8.61835938 -2.08984375 9.35546875 C-2.54037109 10.16951172 -2.54037109 10.16951172 -3 11 C-4.06192476 7.73635123 -4.07454186 7.17280159 -2.625 3.8125 C-1 1 -1 1 0 0 Z " fill="#000E38" transform="translate(90,141)"/>
<path d="M0 0 C0.99 0.33 1.98 0.66 3 1 C3.33 1.99 3.66 2.98 4 4 C3.2575 3.95875 2.515 3.9175 1.75 3.875 C-1.08758952 4.00398134 -2.58773938 4.57051222 -5 6 C-3.35 4.02 -1.7 2.04 0 0 Z " fill="#072459" transform="translate(119,136)"/>
<path d="M0 0 C0.33 0 0.66 0 1 0 C1 1.65 1 3.3 1 5 C2.98 5 4.96 5 7 5 C7 5.33 7 5.66 7 6 C4.03 6 1.06 6 -2 6 C-1.34 4.02 -0.68 2.04 0 0 Z " fill="#022267" transform="translate(50,175)"/>
<path d="M0 0 C0.99 0 1.98 0 3 0 C1.90931332 3.77545388 1.0916909 6.47043472 -2 9 C-2 7.68 -2 6.36 -2 5 C-1.34 5 -0.68 5 0 5 C0 3.35 0 1.7 0 0 Z " fill="#000A30" transform="translate(93,132)"/>
<path d="M0 0 C0.99 0 1.98 0 3 0 C3.66 2.64 4.32 5.28 5 8 C4.01 7.67 3.02 7.34 2 7 C0.8125 3.4375 0.8125 3.4375 0 0 Z " fill="#000A28" transform="translate(128,99)"/>
<path d="M0 0 C1.99097846 2.98646769 2.94124926 5.59687262 4 9 C3.01 8.67 2.02 8.34 1 8 C1 7.34 1 6.68 1 6 C0.34 6 -0.32 6 -1 6 C-0.67 4.02 -0.34 2.04 0 0 Z " fill="#2D77DE" transform="translate(229,70)"/>
<path d="M0 0 C-0.33 2.31 -0.66 4.62 -1 7 C-1.99 6.67 -2.98 6.34 -4 6 C-4 4.35 -4 2.7 -4 1 C-2 0 -2 0 0 0 Z " fill="#2A77F1" transform="translate(76,9)"/>
<path d="M0 0 C0.99928333 2.698065 1.03624754 3.88010429 0.1875 6.6875 C-1 9 -1 9 -3 10 C-2.49287967 6.28111761 -1.88391785 3.26545761 0 0 Z " fill="#011439" transform="translate(55,165)"/>
<path d="M0 0 C3.6 5.4 3.6 5.4 5 8 C4.67 8.66 4.34 9.32 4 10 C1 8 1 8 0.48828125 6.0546875 C0.32552083 4.03645833 0.16276042 2.01822917 0 0 Z " fill="#041949" transform="translate(128,53)"/>
<path d="M0 0 C-1.15173355 2.46800047 -2.04783565 4.04783565 -4 6 C-4.99 5.67 -5.98 5.34 -7 5 C-2.25 0 -2.25 0 0 0 Z " fill="#227DED" transform="translate(43,29)"/>
</svg>
