<?xml version="1.0" encoding="UTF-8"?>
<svg version="1.1" xmlns="http://www.w3.org/2000/svg" width="128" height="128">
<path d="M0 0 C13.50470516 10.42191903 23.36451125 24.92987964 26 42 C27.64893465 61.2338943 24.74560257 78.37166457 12.67578125 94.01171875 C1.88106424 106.4332691 -12.86263239 115.787994 -29.55444336 117.21899414 C-49.46958146 118.09957673 -66.36687582 114.66454652 -81.875 101.1875 C-93.5484592 89.93760609 -101.61153384 75.18379758 -102.3359375 58.80078125 C-102.67363221 38.36748304 -98.2080294 21.59810958 -83.59375 6.43359375 C-60.5019567 -15.23235087 -26.1947572 -17.2325258 0 0 Z " fill="#2E1158" transform="translate(102,11)"/>
<path d="M0 0 C13.50470516 10.42191903 23.36451125 24.92987964 26 42 C27.64893465 61.2338943 24.74560257 78.37166457 12.67578125 94.01171875 C1.88106424 106.4332691 -12.86263239 115.787994 -29.55444336 117.21899414 C-49.46958146 118.09957673 -66.36687582 114.66454652 -81.875 101.1875 C-93.5484592 89.93760609 -101.61153384 75.18379758 -102.3359375 58.80078125 C-102.67363221 38.36748304 -98.2080294 21.59810958 -83.59375 6.43359375 C-60.5019567 -15.23235087 -26.1947572 -17.2325258 0 0 Z M-85.625 15.9375 C-88.20427451 18.61748927 -88.20427451 18.61748927 -88 21 C-69.19 21.33 -50.38 21.66 -31 22 C-28.133125 29.79625 -25.26625 37.5925 -22.3125 45.625 C-21.41829346 48.05568848 -20.52408691 50.48637695 -19.6027832 52.99072266 C-15.68625259 63.64355271 -11.79003189 74.30145783 -8 85 C-11.96 85 -15.92 85 -20 85 C-20.63869019 82.81238037 -20.63869019 82.81238037 -21.2902832 80.58056641 C-22.80045387 75.55049602 -24.5207542 70.6303912 -26.35546875 65.7109375 C-26.66196854 64.88163727 -26.96846832 64.05233704 -27.28425598 63.19790649 C-28.24914127 60.58920019 -29.21823723 57.98208258 -30.1875 55.375 C-30.84858841 53.58994784 -31.50939812 51.80479243 -32.16992188 50.01953125 C-33.77673456 45.67848956 -35.38732141 41.33886577 -37 37 C-37.66 37 -38.32 37 -39 37 C-39.38929687 38.05832031 -39.77859375 39.11664063 -40.1796875 40.20703125 C-40.44450928 40.92640869 -40.70933105 41.64578613 -40.98217773 42.38696289 C-41.58621129 44.02794548 -42.18987948 45.6690626 -42.79321289 47.31030273 C-44.74488014 52.6133569 -46.71189259 57.91039773 -48.69140625 63.203125 C-49.14596191 64.42153076 -49.60051758 65.63993652 -50.06884766 66.89526367 C-50.97605949 69.32609294 -51.88586096 71.75595741 -52.79833984 74.18481445 C-53.21422363 75.30073975 -53.63010742 76.41666504 -54.05859375 77.56640625 C-54.43298584 78.56615479 -54.80737793 79.56590332 -55.19311523 80.59594727 C-56.1060637 82.89336728 -56.1060637 82.89336728 -56 85 C-66.56 85 -77.12 85 -88 85 C-83.46566961 96.33582597 -72.6142497 103.62508498 -61.765625 108.43359375 C-55.85346882 110.83796141 -50.39303775 112.81799181 -44 113 C-42.98679688 113.061875 -41.97359375 113.12375 -40.9296875 113.1875 C-25.02570444 113.75677009 -10.74526555 109.10507411 1.25 98.625 C2.85015568 97.10080108 4.43468308 95.55995625 6 94 C6.6496875 93.37351562 7.299375 92.74703125 7.96875 92.1015625 C17.37593996 82.32303609 22.04161976 68.11299132 22.375 54.75 C21.90422263 36.18254067 16.24058988 22.07359145 3 9 C2.45988281 8.43796875 1.91976562 7.8759375 1.36328125 7.296875 C-8.40694052 -2.05497456 -22.99234304 -7.03082407 -36.25 -7.375 C-56.97331866 -6.84956089 -71.91258159 0.56297027 -85.625 15.9375 Z " fill="#2E1158" transform="translate(102,11)"/>
<path d="M0 0 C0.66 0 1.32 0 2 0 C4.42559907 6.5128046 6.84616314 13.02746392 9.26318359 19.54345703 C10.08655967 21.76133898 10.91110085 23.97878875 11.73681641 26.19580078 C12.92133993 29.37680813 14.10170744 32.55933037 15.28125 35.7421875 C15.83903137 37.23599442 15.83903137 37.23599442 16.40808105 38.75997925 C16.74843384 39.68078278 17.08878662 40.6015863 17.43945312 41.55029297 C17.7414563 42.3630368 18.04345947 43.17578064 18.35461426 44.01315308 C19 46 19 46 19 48 C29.56 48 40.12 48 51 48 C46.40203174 59.49492065 35.09954116 67.20488076 24 72 C7.49846601 78.09313964 -9.13993755 77.52299813 -25.15625 70.40234375 C-35.00501816 65.54560231 -44.84204757 58.39488107 -49 48 C-38.44 48 -27.88 48 -17 48 C-16.01 44.7 -15.02 41.4 -14 38 C-12.94220125 35.00726741 -11.8669726 32.03244978 -10.75 29.0625 C-10.1392284 27.42191019 -9.52855446 25.78128401 -8.91796875 24.140625 C-8.60520996 23.30337891 -8.29245117 22.46613281 -7.97021484 21.60351562 C-6.32104653 17.17806749 -4.69290041 12.74488875 -3.0625 8.3125 C-2.4701459 6.70439252 -1.87770686 5.09631633 -1.28515625 3.48828125 C-0.86105469 2.33714844 -0.43695313 1.18601563 0 0 Z " fill="#020202" transform="translate(63,48)"/>
<path d="M0 0 C5.54546519 4.69568616 10.25900492 9.14751229 13 16 C-20 16 -53 16 -87 16 C-82.29038893 4.22597232 -71.07455083 -2.77106475 -60 -8 C-39.76550876 -15.91185148 -17.40552374 -12.86808375 0 0 Z " fill="#010101" transform="translate(101,16)"/>
<path d="M0 0 C13.50470516 10.42191903 23.36451125 24.92987964 26 42 C27.64893465 61.2338943 24.74560257 78.37166457 12.67578125 94.01171875 C1.88106424 106.4332691 -12.86263239 115.787994 -29.55444336 117.21899414 C-49.46958146 118.09957673 -66.36687582 114.66454652 -81.875 101.1875 C-93.5484592 89.93760609 -101.61153384 75.18379758 -102.3359375 58.80078125 C-102.67363221 38.36748304 -98.2080294 21.59810958 -83.59375 6.43359375 C-60.5019567 -15.23235087 -26.1947572 -17.2325258 0 0 Z M-82 12 C-82.64710937 12.62519531 -83.29421875 13.25039063 -83.9609375 13.89453125 C-95.14866437 25.49752309 -98.42733206 41.64548363 -98.27734375 57.2109375 C-97.09935114 73.3046393 -90.18703447 85.77452211 -79 97 C-78.37351562 97.6496875 -77.74703125 98.299375 -77.1015625 98.96875 C-65.48505976 110.14411972 -49.35943222 113.42737943 -33.7890625 113.27734375 C-17.6953607 112.09935114 -5.22547789 105.18703447 6 94 C6.6496875 93.37351562 7.299375 92.74703125 7.96875 92.1015625 C17.37593996 82.32303609 22.04161976 68.11299132 22.375 54.75 C21.90422263 36.18254067 16.24058988 22.07359145 3 9 C2.45988281 8.43796875 1.91976562 7.8759375 1.36328125 7.296875 C-8.40694052 -2.05497456 -22.99234304 -7.03082407 -36.25 -7.375 C-54.81964999 -6.90416709 -68.92562242 -1.23607483 -82 12 Z " fill="#F9F8F8" transform="translate(102,11)"/>
<path d="M0 0 C4.62 0 9.24 0 14 0 C17.32434816 7.86972899 20.47738266 15.76774113 23.42578125 23.78515625 C23.81823532 24.84866806 24.21068939 25.91217987 24.61503601 27.00791931 C25.43391178 29.22996321 26.25143049 31.45250766 27.06762695 33.67553711 C28.32156022 37.08715041 29.58346757 40.49574787 30.84570312 43.90429688 C31.64371425 46.07273821 32.4412575 48.2413518 33.23828125 50.41015625 C33.61632401 51.42884293 33.99436676 52.4475296 34.38386536 53.49708557 C34.72810043 54.43914352 35.07233551 55.38120148 35.42700195 56.35180664 C35.731689 57.17943008 36.03637604 58.00705353 36.35029602 58.85975647 C37 61 37 61 37 64 C33.04 64 29.08 64 25 64 C20.41936218 51.93822438 20.41936218 51.93822438 18.35620117 46.49072266 C17.85335437 45.16308537 17.35050607 43.83544865 16.84765625 42.5078125 C16.59982895 41.85342194 16.35200165 41.19903137 16.09666443 40.52481079 C14.71756639 36.88559527 13.33050999 33.24959757 11.93359375 29.6171875 C11.65209473 28.88048828 11.3705957 28.14378906 11.08056641 27.38476562 C10.36530534 25.51317341 9.645715 23.64323728 8.92578125 21.7734375 C8 19 8 19 8 16 C7.34 16 6.68 16 6 16 C5.73646729 17.1338916 5.47293457 18.2677832 5.20141602 19.43603516 C4.03558016 24.09005444 2.45506801 28.53282788 0.77734375 33.0234375 C0.47180069 33.85082428 0.16625763 34.67821106 -0.14854431 35.53067017 C-0.78954059 37.26417154 -1.43251714 38.99694186 -2.07739258 40.72900391 C-3.06689258 43.38679846 -4.05056648 46.04669243 -5.03320312 48.70703125 C-5.65852103 50.39595671 -6.28416055 52.08476314 -6.91015625 53.7734375 C-7.20495377 54.56922211 -7.49975128 55.36500671 -7.80348206 56.18490601 C-9.88201289 61.76402579 -9.88201289 61.76402579 -11 64 C-14.96 64 -18.92 64 -23 64 C-22.42725217 60.04455207 -21.59026871 56.4890888 -20.18994141 52.74829102 C-19.63398788 51.25127403 -19.63398788 51.25127403 -19.06680298 49.72401428 C-18.66577362 48.66137863 -18.26474426 47.59874298 -17.8515625 46.50390625 C-17.43836761 45.39699936 -17.02517273 44.29009247 -16.59945679 43.14964294 C-15.72606549 40.81292444 -14.85008022 38.47717407 -13.97167969 36.14233398 C-12.63183197 32.58066119 -11.29958368 29.01622136 -9.96875 25.45117188 C-9.11763086 23.17691736 -8.26608251 20.90282342 -7.4140625 18.62890625 C-6.81859116 17.03798912 -6.81859116 17.03798912 -6.21109009 15.41493225 C-4.25527165 10.22022225 -2.2416062 5.07826183 0 0 Z " fill="#FCFAFA" transform="translate(57,32)"/>
<path d="M0 0 C13.53 0 27.06 0 41 0 C37.625 11.25 37.625 11.25 35.95703125 15.7890625 C35.60576172 16.74941406 35.25449219 17.70976563 34.89257812 18.69921875 C34.53615234 19.66472656 34.17972656 20.63023438 33.8125 21.625 C33.26045898 23.13126953 33.26045898 23.13126953 32.69726562 24.66796875 C31.80077819 27.11293448 30.90076102 29.5566055 30 32 C19.605 32.495 19.605 32.495 9 33 C3.49063707 21.73641356 0 12.61909221 0 0 Z " fill="#E05127" transform="translate(4,64)"/>
<path d="M0 0 C13.53 0 27.06 0 41 0 C41 12.46167999 37.92465796 22.13812707 32 33 C25.07 32.67 18.14 32.34 11 32 C9.43043327 27.76522742 7.86284605 23.52983067 6.30029297 19.29248047 C5.76792764 17.85064416 5.23440373 16.40923508 4.69970703 14.96826172 C3.93218234 12.8992202 3.1688116 10.82868749 2.40625 8.7578125 C2.16563843 8.11192169 1.92502686 7.46603088 1.67712402 6.80056763 C0 2.22774341 0 2.22774341 0 0 Z " fill="#E05127" transform="translate(83,64)"/>
<path d="M0 0 C14.85 0.33 29.7 0.66 45 1 C42 11 42 11 39 17 C25.47 17 11.94 17 -2 17 C-1 3 -1 3 0 0 Z " fill="#953071" transform="translate(6,47)"/>
<path d="M0 0 C0.33 0 0.66 0 1 0 C1.3396019 1.87387477 1.67138691 3.74916697 2 5.625 C2.185625 6.66914062 2.37125 7.71328125 2.5625 8.7890625 C3 12 3 12 3 18 C-10.53 18 -24.06 18 -38 18 C-43 6 -43 6 -44 2 C-29.48 2 -14.96 2 0 2 C0 1.34 0 0.68 0 0 Z " fill="#952F71" transform="translate(121,46)"/>
<path d="M0 0 C10.89 0 21.78 0 33 0 C31.39439057 5.35203144 29.7669811 10.69905669 28 16 C17.605 16.495 17.605 16.495 7 17 C1.125 4.5 1.125 4.5 0 0 Z " fill="#F78B1D" transform="translate(6,80)"/>
<path d="M0 0 C10.89 0 21.78 0 33 0 C29 11 29 11 26 17 C19.07 16.67 12.14 16.34 5 16 C4.175 13.73125 3.35 11.4625 2.5 9.125 C2.23896484 8.41230957 1.97792969 7.69961914 1.70898438 6.96533203 C0 2.22222222 0 2.22222222 0 0 Z " fill="#F78A1D" transform="translate(89,80)"/>
</svg>
