<svg width="1440" height="1046" viewBox="0 0 1440 1046" fill="none" xmlns="http://www.w3.org/2000/svg">
<path d="M1245 456.061L1245.08 456.3L1245.32 456.228L1479.45 385.481L1500.7 379.063L1507.15 400.428L1702.34 1046.4L1708.8 1067.77L1687.55 1074.19L1047.43 1267.6L1030.87 1272.61L1021.92 1257.59L697.817 713.287L697.717 713.119L697.53 713.176L628.363 734.075L628.123 734.148L628.196 734.387L804.452 1317.71L810.908 1339.07L789.667 1345.49L143.102 1540.86L121.861 1547.28L115.405 1525.91L-11.2384 1106.78L-13.6278 1098.88L-10.4028 1091.14L-10.4003 1091.14L151.22 729.203L151.258 729.118L151.231 729.028L107.102 582.982L107.029 582.743L106.79 582.815L-127.348 653.562L-148.589 659.98L-155.045 638.615L-350.233 -7.35941L-356.688 -28.7246L-335.447 -35.1429L304.673 -228.562L321.241 -233.568L330.184 -218.55L654.29 325.756L654.39 325.924L654.577 325.867L723.744 304.968L723.984 304.895L723.911 304.656L547.655 -278.665L541.199 -300.031L562.44 -306.449L1209 -501.815L1230.25 -508.233L1236.7 -486.868L1363.35 -67.7408L1365.73 -59.8356L1362.29 -52.0333L1362.29 -52.0323L1200.89 309.841L1200.85 309.926L1200.88 310.015L1245 456.061Z" stroke="#D9F27E" stroke-opacity="0.32" stroke-width="0.5"/>
</svg>
