<svg width="22" height="22" viewBox="0 0 22 22" fill="none" xmlns="http://www.w3.org/2000/svg">
<path fill-rule="evenodd" clip-rule="evenodd" d="M14.451 3.24969C12.7809 2.5055 10.9149 2.32114 9.13135 2.7241C7.34784 3.12706 5.74236 4.09576 4.55437 5.48571C3.36638 6.87566 2.65952 8.61239 2.53921 10.4369C2.4189 12.2614 2.89159 14.0759 3.88679 15.6098C4.88198 17.1437 6.34636 18.3149 8.06152 18.9485C9.77667 19.5822 11.6507 19.6444 13.4041 19.126C15.1576 18.6076 16.6964 17.5362 17.7912 16.0717C18.886 14.6073 19.4781 12.8281 19.4792 10.9996V10.1567C19.4792 9.77701 19.787 9.46921 20.1667 9.46921C20.5464 9.46921 20.8542 9.77701 20.8542 10.1567V11C20.853 13.125 20.1649 15.1931 18.8925 16.895C17.6202 18.597 15.8318 19.8421 13.794 20.4446C11.7562 21.0471 9.5783 20.9747 7.58501 20.2383C5.59172 19.5019 3.88987 18.1409 2.7333 16.3582C1.57672 14.5756 1.02737 12.4668 1.16719 10.3464C1.30701 8.22606 2.12849 6.20769 3.50913 4.59234C4.88977 2.97699 6.75559 1.85122 8.82832 1.38291C10.9011 0.914603 13.0696 1.12886 15.0106 1.99372C15.3575 2.14826 15.5134 2.55469 15.3588 2.90152C15.2043 3.24834 14.7978 3.40422 14.451 3.24969ZM20.6526 3.18033C20.9212 3.44868 20.9214 3.88398 20.653 4.1526L11.4864 13.3284C11.3575 13.4575 11.1826 13.53 11.0002 13.53C10.8178 13.5301 10.6428 13.4577 10.5139 13.3287L7.76387 10.5787C7.49538 10.3102 7.49538 9.87489 7.76387 9.60641C8.03235 9.33792 8.46765 9.33792 8.73614 9.60641L10.9998 11.87L19.6803 3.18081C19.9486 2.91219 20.3839 2.91198 20.6526 3.18033Z" fill="#D9F27E"/>
</svg>
