<svg xmlns="http://www.w3.org/2000/svg" xmlns:xlink="http://www.w3.org/1999/xlink">
    <defs>
      <symbol viewBox="0 0 11 6" fill="none" xmlns="http://www.w3.org/2000/svg" id="chevron-down">
        <path fill-rule="evenodd" clip-rule="evenodd" d="M0.602252 0.352252C0.821922 0.132583 1.17808 0.132583 1.39775 0.352252L5.5 4.4545L9.60225 0.352252C9.82192 0.132583 10.1781 0.132583 10.3977 0.352252C10.6174 0.571922 10.6174 0.928078 10.3977 1.14775L5.89775 5.64775C5.67808 5.86742 5.32192 5.86742 5.10225 5.64775L0.602252 1.14775C0.382583 0.928078 0.382583 0.571922 0.602252 0.352252Z" fill="currentColor"/>
      </symbol>

      <symbol viewBox="0 0 25 24" fill="none" xmlns="http://www.w3.org/2000/svg" id="cog">
        <path d="M20.56 9.59372C21.102 9.68372 21.5 10.1537 21.5 10.7037L21.5 13.2967C21.5 13.8467 21.102 14.3167 20.56 14.4067L19.279 14.6197C18.905 14.6827 18.593 14.9327 18.409 15.2647C18.369 15.3387 18.326 15.4117 18.282 15.4847C18.086 15.8087 18.025 16.2047 18.158 16.5597L18.614 17.7767C18.7078 18.0261 18.71 18.3007 18.6203 18.5516C18.5306 18.8025 18.3547 19.0134 18.124 19.1467L15.877 20.4427C15.6463 20.5758 15.3759 20.6227 15.1138 20.5751C14.8518 20.5275 14.6152 20.3884 14.446 20.1827L13.619 19.1797C13.379 18.8867 13.006 18.7417 12.627 18.7487C12.542 18.7503 12.457 18.7503 12.372 18.7487C11.994 18.7417 11.622 18.8867 11.382 19.1787L10.554 20.1837C10.204 20.6077 9.6 20.7177 9.124 20.4437L6.877 19.1457C6.64636 19.0126 6.47044 18.8019 6.38053 18.5512C6.29062 18.3005 6.29256 18.0261 6.386 17.7767L6.842 16.5597C6.975 16.2047 6.914 15.8097 6.718 15.4837C6.67392 15.4112 6.63124 15.3379 6.59 15.2637C6.407 14.9327 6.095 14.6827 5.721 14.6197L4.441 14.4067C3.898 14.3167 3.5 13.8467 3.5 13.2967L3.5 10.7027C3.5 10.1527 3.898 9.68272 4.44 9.59272L5.721 9.37972C6.095 9.31772 6.407 9.06772 6.591 8.73572C6.6319 8.66157 6.67424 8.58822 6.718 8.51572C6.914 8.19072 6.975 7.79572 6.842 7.43972L6.386 6.22272C6.29248 5.97344 6.29039 5.69908 6.38011 5.44842C6.46983 5.19775 6.64554 4.98703 6.876 4.85372L9.123 3.55672C9.3537 3.42366 9.62413 3.37676 9.88617 3.42437C10.1482 3.47198 10.3848 3.61101 10.554 3.81672L11.381 4.82072C11.621 5.11272 11.994 5.25772 12.373 5.25072C12.458 5.24915 12.543 5.24915 12.628 5.25072C13.006 5.25772 13.378 5.11272 13.618 4.82072L14.446 3.81672C14.6151 3.61126 14.8516 3.47239 15.1134 3.42479C15.3752 3.37719 15.6454 3.42393 15.876 3.55672L18.123 4.85372C18.3539 4.9869 18.5299 5.19773 18.6199 5.44863C18.7098 5.69953 18.7077 5.97421 18.614 6.22372L18.158 7.43972C18.025 7.79572 18.086 8.19072 18.282 8.51572C18.326 8.58772 18.369 8.66172 18.41 8.73572C18.593 9.06772 18.905 9.31772 19.279 9.37972L20.56 9.59372Z" stroke="currentColor" stroke-width="1.5" stroke-linecap="round" stroke-linejoin="round"/>
        <path fill-rule="evenodd" clip-rule="evenodd" d="M14.75 12C14.75 11.4033 14.5129 10.831 14.091 10.409C13.669 9.98705 13.0967 9.75 12.5 9.75C11.9033 9.75 11.331 9.98705 10.909 10.409C10.4871 10.831 10.25 11.4033 10.25 12C10.25 12.5967 10.4871 13.169 10.909 13.591C11.331 14.0129 11.9033 14.25 12.5 14.25C13.0967 14.25 13.669 14.0129 14.091 13.591C14.5129 13.169 14.75 12.5967 14.75 12ZM15.1517 9.34835C15.8549 10.0516 16.25 11.0054 16.25 12C16.25 12.9946 15.8549 13.9484 15.1517 14.6517C14.4484 15.3549 13.4946 15.75 12.5 15.75C11.5054 15.75 10.5516 15.3549 9.84835 14.6517C9.14509 13.9484 8.75 12.9946 8.75 12C8.75 11.0054 9.14509 10.0516 9.84835 9.34835C10.5516 8.64509 11.5054 8.25 12.5 8.25C13.4946 8.25 14.4484 8.64509 15.1517 9.34835Z" fill="currentColor"/>
      </symbol>

      <symbol viewBox="0 0 18 18" fill="none" xmlns="http://www.w3.org/2000/svg" id="switch">
        <path d="M3.96979 17.0302L0.969791 14.0302C0.829061 13.8895 0.75 13.6986 0.75 13.4996C0.75 13.3006 0.829061 13.1097 0.969791 12.969C1.11052 12.8283 1.30139 12.7492 1.50042 12.7492C1.69944 12.7492 1.89031 12.8283 2.03104 12.969L3.75042 14.6893L3.75042 1.49961C3.75042 1.3007 3.82944 1.10994 3.97009 0.969283C4.11074 0.828631 4.30151 0.749613 4.50042 0.749613C4.69933 0.749613 4.8901 0.828631 5.03075 0.969283C5.1714 1.10994 5.25042 1.3007 5.25042 1.49961L5.25042 14.6893L6.96979 12.969C7.11052 12.8283 7.3014 12.7492 7.50042 12.7492C7.69944 12.7492 7.89031 12.8283 8.03104 12.969C8.17177 13.1097 8.25084 13.3006 8.25084 13.4996C8.25084 13.6986 8.17177 13.8895 8.03104 14.0302L5.03104 17.0302C4.96139 17.1 4.87867 17.1553 4.78762 17.193C4.69658 17.2308 4.59898 17.2502 4.50042 17.2502C4.40186 17.2502 4.30426 17.2308 4.21321 17.193C4.12217 17.1553 4.03945 17.1 3.96979 17.0302ZM9.96979 3.96899C9.82906 4.10972 9.75 4.30059 9.75 4.49961C9.75 4.69864 9.82906 4.88951 9.96979 5.03024C10.1105 5.17097 10.3014 5.25003 10.5004 5.25003C10.6994 5.25003 10.8903 5.17097 11.031 5.03024L12.7504 3.30993V16.4996C12.7504 16.6985 12.8294 16.8893 12.9701 17.0299C13.1107 17.1706 13.3015 17.2496 13.5004 17.2496C13.6993 17.2496 13.8901 17.1706 14.0307 17.0299C14.1714 16.8893 14.2504 16.6985 14.2504 16.4996V3.30993L15.9698 5.03024C16.1105 5.17097 16.3014 5.25003 16.5004 5.25003C16.6994 5.25003 16.8903 5.17097 17.031 5.03024C17.1718 4.88951 17.2508 4.69864 17.2508 4.49961C17.2508 4.30059 17.1718 4.10972 17.031 3.96899L14.031 0.968989C13.9614 0.899256 13.8787 0.843937 13.7876 0.806194C13.6966 0.768451 13.599 0.749023 13.5004 0.749023C13.4019 0.749023 13.3043 0.768451 13.2132 0.806194C13.1222 0.843937 13.0394 0.899256 12.9698 0.968989L9.96979 3.96899Z" fill="currentColor"/>
      </symbol>

      <symbol viewBox="0 0 14 14" fill="none" xmlns="http://www.w3.org/2000/svg" id='cross'>
        <path fill-rule="evenodd" clip-rule="evenodd" d="M13.5303 0.46967C13.8232 0.762563 13.8232 1.23744 13.5303 1.53033L8.06066 7L13.5303 12.4697C13.8232 12.7626 13.8232 13.2374 13.5303 13.5303C13.2374 13.8232 12.7626 13.8232 12.4697 13.5303L7 8.06066L1.53033 13.5303C1.23744 13.8232 0.762562 13.8232 0.46967 13.5303C0.176776 13.2374 0.176776 12.7626 0.46967 12.4697L5.93934 7L0.46967 1.53033C0.176777 1.23744 0.176777 0.762563 0.46967 0.469669C0.762563 0.176776 1.23744 0.176776 1.53033 0.469669L7 5.93934L12.4697 0.46967C12.7626 0.176777 13.2374 0.176777 13.5303 0.46967Z" fill="currentColor"/>
      </symbol>

      <symbol viewBox="0 0 22 22" fill="none" xmlns="http://www.w3.org/2000/svg" id='arrow'>
        <path fill-rule="evenodd" clip-rule="evenodd" d="M11.7069 0.958903C12.0975 1.34942 12.0975 1.98259 11.707 2.37312L4.08069 9.99951L20.3332 9.99951C20.8855 9.99951 21.3332 10.4472 21.3332 10.9995C21.3332 11.5518 20.8855 11.9995 20.3332 11.9995L4.08075 11.9995L11.7069 19.6256C12.0975 20.0161 12.0975 20.6493 11.707 21.0398C11.3164 21.4303 10.6833 21.4303 10.2927 21.0398L0.959403 11.7066C0.771865 11.5191 0.666506 11.2647 0.666504 10.9995C0.666502 10.7343 0.771856 10.4799 0.959391 10.2924L10.2927 0.958915C10.6832 0.568387 11.3164 0.568382 11.7069 0.958903Z" fill="currentColor"/>
      </symbol>

      <symbol viewBox="0 0 58 58" fill="none" xmlns="http://www.w3.org/2000/svg" id='success'>
        <path fill-rule="evenodd" clip-rule="evenodd" d="M28.9999 4.33325C15.3769 4.33325 4.33325 15.3769 4.33325 28.9999C4.33325 42.6229 15.3769 53.6666 28.9999 53.6666C42.6229 53.6666 53.6666 42.6229 53.6666 28.9999C53.6666 15.3769 42.6229 4.33325 28.9999 4.33325ZM0.333252 28.9999C0.333252 13.1678 13.1678 0.333252 28.9999 0.333252C44.8321 0.333252 57.6666 13.1678 57.6666 28.9999C57.6666 44.8321 44.8321 57.6666 28.9999 57.6666C13.1678 57.6666 0.333252 44.8321 0.333252 28.9999ZM16.919 27.5857L27.5857 16.919C28.3668 16.138 29.6331 16.138 30.4141 16.919L41.0808 27.5857C41.8618 28.3668 41.8618 29.6331 41.0808 30.4141C40.2998 31.1952 39.0334 31.1952 38.2524 30.4141L30.9999 23.1617V39.6666C30.9999 40.7712 30.1045 41.6666 28.9999 41.6666C27.8954 41.6666 26.9999 40.7712 26.9999 39.6666V23.1617L19.7475 30.4141C18.9664 31.1952 17.7001 31.1952 16.919 30.4141C16.138 29.6331 16.138 28.3668 16.919 27.5857Z" fill="#D9F27E"/>
      </symbol>

      <symbol viewBox="0 0 58 58" fill="none" xmlns="http://www.w3.org/2000/svg" id='error'>
        <path fill-rule="evenodd" clip-rule="evenodd" d="M28.9999 4.33325C15.3769 4.33325 4.33325 15.3769 4.33325 28.9999C4.33325 42.6229 15.3769 53.6666 28.9999 53.6666C42.6229 53.6666 53.6666 42.6229 53.6666 28.9999C53.6666 15.3769 42.6229 4.33325 28.9999 4.33325ZM0.333252 28.9999C0.333252 13.1678 13.1678 0.333252 28.9999 0.333252C44.8321 0.333252 57.6666 13.1678 57.6666 28.9999C57.6666 44.8321 44.8321 57.6666 28.9999 57.6666C13.1678 57.6666 0.333252 44.8321 0.333252 28.9999ZM28.9999 16.3333C30.1045 16.3333 30.9999 17.2287 30.9999 18.3333V28.9999C30.9999 30.1045 30.1045 30.9999 28.9999 30.9999C27.8954 30.9999 26.9999 30.1045 26.9999 28.9999V18.3333C26.9999 17.2287 27.8954 16.3333 28.9999 16.3333ZM26.9999 39.6666C26.9999 38.562 27.8954 37.6666 28.9999 37.6666H29.0266C30.1312 37.6666 31.0266 38.562 31.0266 39.6666C31.0266 40.7712 30.1312 41.6666 29.0266 41.6666H28.9999C27.8954 41.6666 26.9999 40.7712 26.9999 39.6666Z" fill="#FFAAA1"/>
      </symbol>

      <symbol viewBox="0 0 15 16" fill="none" xmlns="http://www.w3.org/2000/svg" id='info'>
        <path fill-rule="evenodd" clip-rule="evenodd" d="M7.49967 1.83301C4.09392 1.83301 1.33301 4.59392 1.33301 7.99967C1.33301 11.4054 4.09392 14.1663 7.49967 14.1663C10.9054 14.1663 13.6663 11.4054 13.6663 7.99967C13.6663 4.59392 10.9054 1.83301 7.49967 1.83301ZM0.333008 7.99967C0.333008 4.04163 3.54163 0.833008 7.49967 0.833008C11.4577 0.833008 14.6663 4.04163 14.6663 7.99967C14.6663 11.9577 11.4577 15.1663 7.49967 15.1663C3.54163 15.1663 0.333008 11.9577 0.333008 7.99967ZM6.99967 5.33301C6.99967 5.05687 7.22353 4.83301 7.49967 4.83301H7.50634C7.78248 4.83301 8.00634 5.05687 8.00634 5.33301C8.00634 5.60915 7.78248 5.83301 7.50634 5.83301H7.49967C7.22353 5.83301 6.99967 5.60915 6.99967 5.33301ZM7.49967 7.49967C7.77582 7.49967 7.99967 7.72353 7.99967 7.99967V10.6663C7.99967 10.9425 7.77582 11.1663 7.49967 11.1663C7.22353 11.1663 6.99967 10.9425 6.99967 10.6663V7.99967C6.99967 7.72353 7.22353 7.49967 7.49967 7.49967Z" fill="#ADB2A4"/>
      </symbol>

      <symbol viewBox="0 0 85 85" fill="none" xmlns="http://www.w3.org/2000/svg" id='arrow-diagonal'>
        <path fill-rule="evenodd" clip-rule="evenodd" d="M81.8329 1.98166H12.7276V0H84.0092H85V0.99083V72.2724H83.0183V3.59868L1.61707 85L0.21582 83.5987L81.8329 1.98166Z" fill="#191A1A"/>
      </symbol>


    </defs>
</svg>
