<svg width="24" height="24" viewBox="0 0 24 24" fill="none" xmlns="http://www.w3.org/2000/svg">
<rect width="24" height="24" rx="12" fill="white"/>
<path d="M11.7548 3.02684V3.03579C11.7638 3.08052 11.7638 3.13419 11.7638 3.18787V9.63814C11.7548 9.67393 11.728 9.68288 11.7011 9.70077C11.5133 9.79023 11.3343 9.87075 11.1465 9.95126C10.887 10.0676 10.6186 10.1928 10.3592 10.3091L9.41981 10.7385C9.16037 10.8548 8.90093 10.9711 8.65043 11.0874C8.34626 11.2306 8.03313 11.3648 7.72896 11.5079C7.46952 11.6242 7.21007 11.7495 6.94168 11.8658C6.72697 11.9642 6.51226 12.0536 6.30649 12.1521C6.2886 12.161 6.27071 12.1699 6.25282 12.1699C6.24387 12.1699 6.24387 12.1699 6.23492 12.161L6.47648 11.7584C6.94168 10.989 7.39795 10.2286 7.86315 9.45922C8.3552 8.63616 8.8562 7.8131 9.34824 6.99004C9.80451 6.22961 10.2697 5.46917 10.726 4.70874C11.057 4.15407 11.397 3.5994 11.728 3.04473C11.7369 3.02684 11.7459 3.01789 11.7459 3H11.7548C11.7459 3.00895 11.7548 3.01789 11.7548 3.02684Z" fill="#8A92B2"/>
<path d="M17.2475 12.1612L17.2565 12.1702L15.9414 12.9485L11.8082 15.3909C11.7903 15.3998 11.7724 15.4087 11.7634 15.4177C11.7366 15.4177 11.7366 15.3909 11.7366 15.3819V15.3014V9.77258C11.7366 9.74574 11.7366 9.70996 11.7455 9.68312C11.7545 9.64734 11.7813 9.65628 11.8082 9.66523C11.9245 9.71891 12.0497 9.77258 12.166 9.82626C12.5149 9.98729 12.8638 10.1483 13.2127 10.3004C13.5169 10.4346 13.8121 10.5777 14.1163 10.7119C14.4205 10.8461 14.7247 10.9893 15.0288 11.1235C15.2883 11.2398 15.5567 11.365 15.8161 11.4813C16.0756 11.5976 16.344 11.7229 16.6034 11.8392C16.8092 11.9286 17.0149 12.027 17.2207 12.1165C17.2207 12.1433 17.2296 12.1523 17.2475 12.1612Z" fill="#454A75"/>
<path d="M11.7544 20.9732C11.7544 20.9821 11.7455 20.991 11.7455 21H11.7365C11.7365 20.9821 11.7187 20.9732 11.7097 20.9553C11.155 20.1769 10.6004 19.3897 10.0457 18.6113C9.48207 17.8151 8.90951 17.01 8.34589 16.2137C7.80016 15.4444 7.24549 14.666 6.69977 13.8966C6.55663 13.6909 6.41348 13.4941 6.27034 13.2883C6.2614 13.2704 6.25245 13.2615 6.23456 13.2346C6.2614 13.2346 6.27929 13.2525 6.28824 13.2615C7.06657 13.7177 7.83595 14.174 8.61428 14.6302C9.50891 15.1581 10.3946 15.6859 11.2892 16.2137L11.7455 16.4821C11.7634 16.5 11.7634 16.5179 11.7634 16.5358V20.8479C11.7634 20.8926 11.7634 20.9374 11.7544 20.9732Z" fill="#8A92B2"/>
<path d="M6.22571 12.1789V12.1699C6.51199 12.0447 6.78933 11.9105 7.07561 11.7852C7.44241 11.6152 7.80921 11.4542 8.17601 11.2842C8.45334 11.159 8.73962 11.0248 9.01696 10.8995C9.42849 10.7117 9.83107 10.5327 10.2426 10.3449C10.5199 10.2196 10.7973 10.0944 11.0836 9.96018C11.2804 9.87072 11.4861 9.78125 11.683 9.69179C11.7009 9.68284 11.7277 9.6739 11.7366 9.65601C11.7456 9.65601 11.7456 9.66495 11.7366 9.6739V15.3548C11.7366 15.3816 11.7277 15.4085 11.7456 15.4264C11.7277 15.4532 11.7098 15.4264 11.7009 15.4174C11.6203 15.3727 11.5398 15.328 11.4593 15.2743C9.73267 14.2544 7.99708 13.2256 6.27044 12.2057C6.26149 12.1968 6.2436 12.1878 6.22571 12.1789Z" fill="#62688F"/>
<path d="M17.2298 13.2346H17.2387C17.2387 13.2525 17.2208 13.2704 17.2119 13.2883C15.5657 15.6054 13.9196 17.9314 12.2735 20.2485C12.1035 20.4901 11.9246 20.7316 11.7546 20.9732C11.7457 20.9642 11.7457 20.9553 11.7457 20.9463V20.8926V16.5537V16.4732C12.1214 16.2495 12.4882 16.0348 12.864 15.8111C14.3133 14.9523 15.7626 14.1024 17.2029 13.2436C17.2119 13.2525 17.2208 13.2436 17.2298 13.2346Z" fill="#62688F"/>
<path d="M11.7456 9.67403V9.65614V9.60246V3.10746C11.7456 3.08062 11.7367 3.06273 11.7546 3.03589C13.5707 6.05079 15.3868 9.05674 17.1939 12.0716C17.2118 12.0985 17.2387 12.1343 17.2476 12.17C17.1224 12.1253 17.0061 12.0627 16.8898 12.009C16.7466 11.9464 16.5945 11.8748 16.4514 11.8122C16.3619 11.7675 16.2635 11.7317 16.174 11.6869C16.022 11.6154 15.8699 11.5528 15.7178 11.4812C15.6283 11.4454 15.5389 11.4007 15.4494 11.3559L14.8589 11.0875C14.7605 11.0428 14.6621 10.9981 14.5548 10.9534L14.1253 10.7655C14.0359 10.7297 13.9464 10.685 13.8569 10.6402L13.2665 10.3718C13.1681 10.3271 13.0697 10.2824 12.9623 10.2377L12.5329 10.0498C12.4345 10.005 12.345 9.96032 12.2466 9.91558C12.0766 9.83507 11.9066 9.75455 11.7277 9.68298C11.7546 9.67403 11.7456 9.67403 11.7456 9.67403Z" fill="#62688F"/>
</svg>
