<svg width="17" height="18" viewBox="0 0 17 18" fill="none" xmlns="http://www.w3.org/2000/svg">
<path fill-rule="evenodd" clip-rule="evenodd" d="M10.2754 1.5C10.2754 1.15482 10.5552 0.875 10.9004 0.875H15.9004C16.2456 0.875 16.5254 1.15482 16.5254 1.5V6.5C16.5254 6.84518 16.2456 7.125 15.9004 7.125C15.5552 7.125 15.2754 6.84518 15.2754 6.5V3.00888L7.17567 11.1086C6.93159 11.3527 6.53586 11.3527 6.29178 11.1086C6.0477 10.8645 6.0477 10.4688 6.29178 10.2247L14.3915 2.125H10.9004C10.5552 2.125 10.2754 1.84518 10.2754 1.5ZM2.56706 4.625C2.29079 4.625 2.02584 4.73475 1.83049 4.9301C1.63514 5.12545 1.52539 5.3904 1.52539 5.66667V14.8333C1.52539 15.1096 1.63514 15.3746 1.83049 15.5699C2.02584 15.7653 2.29079 15.875 2.56706 15.875H11.7337C12.01 15.875 12.2749 15.7653 12.4703 15.5699C12.6656 15.3746 12.7754 15.1096 12.7754 14.8333V9.83333C12.7754 9.48816 13.0552 9.20833 13.4004 9.20833C13.7456 9.20833 14.0254 9.48816 14.0254 9.83333V14.8333C14.0254 15.4411 13.7839 16.024 13.3542 16.4538C12.9244 16.8836 12.3415 17.125 11.7337 17.125H2.56706C1.95927 17.125 1.37637 16.8836 0.946604 16.4538C0.516833 16.024 0.275391 15.4411 0.275391 14.8333V5.66667C0.275391 5.05888 0.516833 4.47598 0.946604 4.04621C1.37638 3.61644 1.95927 3.375 2.56706 3.375H7.56706C7.91223 3.375 8.19206 3.65482 8.19206 4C8.19206 4.34518 7.91223 4.625 7.56706 4.625H2.56706Z" fill="#D9F27E"/>
</svg>
