<?xml version="1.0" encoding="UTF-8"?>
<svg version="1.1" xmlns="http://www.w3.org/2000/svg" width="240" height="241">
<path d="M0 0 C10.54059873 9.17644296 19.94423141 18.80047899 27.1875 30.8203125 C27.53361328 31.39185059 27.87972656 31.96338867 28.23632812 32.55224609 C32.48407018 39.68070824 35.83143158 46.96178026 38.5 54.8203125 C38.84550903 55.83194458 38.84550903 55.83194458 39.19799805 56.86401367 C43.1269964 69.15565073 44.72719398 81.20279255 44.625 94.0703125 C44.62043793 95.0771257 44.62043793 95.0771257 44.61578369 96.10427856 C44.40218127 128.14606543 31.98585412 157.22664716 9.4375 180.0703125 C-13.55728868 202.71485835 -43.53403879 214.92688455 -75.8125 215.1953125 C-110.26883056 214.90877337 -140.37321248 200.89349023 -164.4934082 176.55981445 C-170.06199034 170.76293426 -174.65273151 164.7232354 -178.8125 157.8203125 C-179.15861328 157.24877441 -179.50472656 156.67723633 -179.86132812 156.08837891 C-184.10907018 148.95991676 -187.45643158 141.67884474 -190.125 133.8203125 C-190.35533936 133.14589111 -190.58567871 132.47146973 -190.82299805 131.77661133 C-194.7519964 119.48497427 -196.35219398 107.43783245 -196.25 94.5703125 C-196.24695862 93.8991037 -196.24391724 93.2278949 -196.24078369 92.53634644 C-196.02718127 60.49455957 -183.61085412 31.41397784 -161.0625 8.5703125 C-117.94044951 -33.89492879 -47.45702362 -38.61936361 0 0 Z " fill="#B34CF0" transform="translate(195.8125,26.1796875)"/>
<path d="M0 0 C21.03458538 6.92698855 37.19991671 28.78552116 50.06835938 45.69726562 C48.32333809 49.30077803 46.23652843 52.47182463 43.94335938 55.75976562 C43.5452002 56.33122314 43.14704102 56.90268066 42.73681641 57.49145508 C39.53501436 62.07062894 36.25650044 66.59177341 32.95507812 71.09960938 C31.19077432 73.52872331 29.46681663 75.98039852 27.75585938 78.44726562 C24.29807641 83.41634503 20.7124463 88.28634721 17.12255859 93.16015625 C13.9281975 97.50439931 10.80714901 101.89232701 7.73242188 106.32226562 C5.93608235 108.88605536 4.10103948 111.41841321 2.25585938 113.94726562 C-5.63001761 124.75609315 -13.35012919 135.67294224 -20.93164062 146.69726562 C-24.78975041 145.41122903 -25.28593465 143.98175606 -27.43164062 140.57226562 C-30.63687567 135.61389097 -33.97872123 130.81537765 -37.49414062 126.07226562 C-40.47663216 122.03929559 -43.447478 118.0067842 -46.30664062 113.88476562 C-49.5169837 109.25696797 -52.81471244 104.69552992 -56.11914062 100.13476562 C-60.42979716 94.18304326 -64.70484632 88.20883138 -68.93164062 82.19726562 C-73.18624783 76.14941764 -77.47868859 70.1303689 -81.80664062 64.13476562 C-82.33 63.40902344 -82.85335937 62.68328125 -83.39257812 61.93554688 C-86.85376686 57.14992367 -90.37319384 52.41098029 -93.93164062 47.69726562 C-77.03388288 11.388783 -38.97413241 -9.90600355 0 0 Z " fill="#050107" transform="translate(141.931640625,57.302734375)"/>
<path d="M0 0 C0.86462357 -0.01377182 1.72924713 -0.02754364 2.62007141 -0.04173279 C4.45164597 -0.06500865 6.28330529 -0.08227213 8.11499023 -0.09399414 C10.89922801 -0.12083774 13.67961542 -0.19571374 16.46289062 -0.27148438 C31.39421368 -0.49203057 31.39421368 -0.49203057 36.27734375 3.71484375 C37.93920898 5.6394043 37.93920898 5.6394043 39.23828125 7.44140625 C39.94339844 8.19808594 40.64851563 8.95476562 41.375 9.734375 C41.88675781 10.35957031 42.39851563 10.98476562 42.92578125 11.62890625 C45.47530896 14.63619007 48.08426906 17.05458621 51.23828125 19.44140625 C52.58975263 20.75635137 53.92940667 22.08405483 55.23828125 23.44140625 C53.5393516 27.22706471 51.16560864 30.47593258 48.73828125 33.81640625 C47.829371 35.0780846 46.92051839 36.33980447 46.01171875 37.6015625 C45.54862305 38.2423877 45.08552734 38.88321289 44.60839844 39.54345703 C42.51725475 42.44020525 40.4396561 45.34656198 38.36328125 48.25390625 C37.95803223 48.82069092 37.5527832 49.38747559 37.13525391 49.97143555 C34.29802822 53.94388232 31.47975421 57.92937737 28.66943359 61.92089844 C27.1412951 64.0891577 25.60796628 66.25367503 24.07421875 68.41796875 C22.30466697 70.91762361 20.55909346 73.43036979 18.83984375 75.96484375 C18.14632812 76.96773438 17.4528125 77.970625 16.73828125 79.00390625 C16.15046875 79.87144531 15.56265625 80.73898438 14.95703125 81.6328125 C14.10625 82.52806641 14.10625 82.52806641 13.23828125 83.44140625 C11.91828125 83.44140625 10.59828125 83.44140625 9.23828125 83.44140625 C7.30078125 81.4140625 7.30078125 81.4140625 5.23828125 78.50390625 C4.85873291 77.97611572 4.47918457 77.4483252 4.08813477 76.90454102 C2.7910672 75.09289995 1.51464697 73.26768324 0.23828125 71.44140625 C-0.75177995 70.0423851 -1.74269574 68.64396842 -2.734375 67.24609375 C-4.80344318 64.32488234 -6.86496675 61.39853413 -8.921875 58.46875 C-11.17127089 55.27005416 -13.45166906 52.0967132 -15.76171875 48.94140625 C-17.76171875 46.19140625 -17.76171875 46.19140625 -19.76171875 43.44140625 C-20.25800781 42.76480957 -20.75429687 42.08821289 -21.265625 41.39111328 C-22.94044366 39.10209546 -24.60180075 36.80374591 -26.26171875 34.50390625 C-26.803125 33.76914063 -27.34453125 33.034375 -27.90234375 32.27734375 C-28.4025 31.57996094 -28.90265625 30.88257812 -29.41796875 30.1640625 C-29.86978516 29.54281494 -30.32160156 28.92156738 -30.78710938 28.28149414 C-31.76171875 26.44140625 -31.76171875 26.44140625 -31.76171875 22.44140625 C-29.49058941 19.84582986 -27.12624531 17.71959757 -24.38671875 15.62890625 C-21.29448978 13.05204878 -18.86508443 10.15236942 -16.3125 7.05078125 C-15.54486328 6.25414063 -15.54486328 6.25414063 -14.76171875 5.44140625 C-14.10171875 5.44140625 -13.44171875 5.44140625 -12.76171875 5.44140625 C-12.43171875 4.45140625 -12.10171875 3.46140625 -11.76171875 2.44140625 C-7.87331742 -0.1508613 -4.51978799 0.06303661 0 0 Z " fill="#B24CEF" transform="translate(108.76171875,81.55859375)"/>
<path d="M0 0 C0.33 0 0.66 0 1 0 C1.20086443 3.71599191 1.1519437 4.77208445 -1 8 C-1.99 8 -2.98 8 -4 8 C-4.12375 8.639375 -4.2475 9.27875 -4.375 9.9375 C-4.58125 10.618125 -4.7875 11.29875 -5 12 C-5.99 12.495 -5.99 12.495 -7 13 C-8.12224855 14.88013106 -8.12224855 14.88013106 -9.125 17.0625 C-9.47820312 17.79597656 -9.83140625 18.52945313 -10.1953125 19.28515625 C-10.59363281 20.13400391 -10.59363281 20.13400391 -11 21 C-11.66 21 -12.32 21 -13 21 C-13.28875 21.763125 -13.5775 22.52625 -13.875 23.3125 C-15 26 -15 26 -17 29 C-17 29.99 -17 30.98 -17 32 C-18.65 32 -20.3 32 -22 32 C-19.17632975 26.70561828 -15.86684481 21.95472142 -12.30078125 17.1328125 C-10.60851886 14.82857747 -8.94105699 12.51511074 -7.29296875 10.1796875 C-6.83937988 9.53781494 -6.38579102 8.89594238 -5.91845703 8.23461914 C-5.02254545 6.9646314 -4.12894482 5.6930099 -3.23779297 4.41967773 C-2.18296802 2.92885568 -1.09472822 1.4617716 0 0 Z " fill="#9E4ED4" transform="translate(177,124)"/>
<path d="M0 0 C6.19300719 -0.07416092 12.38575584 -0.12860756 18.57910156 -0.16479492 C20.6859182 -0.17988069 22.79270344 -0.20035193 24.89941406 -0.22631836 C27.9278132 -0.26271053 30.95579709 -0.2797285 33.984375 -0.29296875 C34.92617615 -0.30845261 35.86797729 -0.32393646 36.83831787 -0.33988953 C37.71892883 -0.34011612 38.59953979 -0.34034271 39.50683594 -0.34057617 C40.27960876 -0.34723801 41.05238159 -0.35389984 41.84857178 -0.36076355 C44.54541296 0.0914579 45.95121566 1.23778143 48 3 C47.67 4.32 47.34 5.64 47 7 C46.36408936 6.1857959 45.72817871 5.3715918 45.07299805 4.53271484 C40.90788701 1.09989829 38.06112564 1.33592373 32.83203125 1.4765625 C31.51799568 1.4836171 31.51799568 1.4836171 30.17741394 1.49081421 C27.38829929 1.51210931 24.60110439 1.56871315 21.8125 1.625 C19.92514809 1.6415117 18.03777591 1.65585859 16.15039062 1.66796875 C7.82159318 1.22832403 7.82159318 1.22832403 0 3 C0 2.01 0 1.02 0 0 Z " fill="#110120" transform="translate(98,81)"/>
<path d="M0 0 C0.33 0.99 0.66 1.98 1 3 C0.2575 3.721875 -0.485 4.44375 -1.25 5.1875 C-2.1575 6.115625 -3.065 7.04375 -4 8 C-4.804375 8.78375 -5.60875 9.5675 -6.4375 10.375 C-8.42950948 13.0569089 -8.42950948 13.0569089 -7.25 16.8125 C-6.8375 17.864375 -6.425 18.91625 -6 20 C-6.99 20 -7.98 20 -9 20 C-11.1875 17.5 -11.1875 17.5 -13 15 C-11.38989473 10.92623969 -8.46177729 8.23492931 -5.375 5.25 C-4.859375 4.74339844 -4.34375 4.23679687 -3.8125 3.71484375 C-2.54616661 2.47196098 -1.2736856 1.23534724 0 0 Z " fill="#1D012D" transform="translate(61,90)"/>
<path d="M0 0 C1.32 0.33 2.64 0.66 4 1 C2.59854546 3.01234498 1.18072859 5.00864109 -0.25 7 C-0.64574219 7.57234375 -1.04148437 8.1446875 -1.44921875 8.734375 C-2.640625 10.375 -2.640625 10.375 -5 13 C-6.32 13 -7.64 13 -9 13 C-9.66 11.68 -10.32 10.36 -11 9 C-9.329375 8.5978125 -9.329375 8.5978125 -7.625 8.1875 C-3.78159049 7.34190981 -3.78159049 7.34190981 -2 4 C-1.34 4 -0.68 4 0 4 C0 2.68 0 1.36 0 0 Z " fill="#A450D8" transform="translate(127,152)"/>
<path d="M0 0 C1.32 0.99 2.64 1.98 4 3 C2.27292183 6.79957198 -0.06130721 10.14984185 -2.4375 13.5625 C-2.83259766 14.13935547 -3.22769531 14.71621094 -3.63476562 15.31054688 C-5.57053259 18.10307592 -7.47235337 20.71617781 -10 23 C-9.67 21.02 -9.34 19.04 -9 17 C-8.34 17 -7.68 17 -7 17 C-7 16.34 -7 15.68 -7 15 C-6.34 15 -5.68 15 -5 15 C-5 14.01 -5 13.02 -5 12 C-4.34 12 -3.68 12 -3 12 C-2.814375 11.1028125 -2.814375 11.1028125 -2.625 10.1875 C-2 8 -2 8 0 5 C0.66 5 1.32 5 2 5 C1.34 3.35 0.68 1.7 0 0 Z " fill="#270437" transform="translate(188,100)"/>
<path d="M0 0 C0.33 0.99 0.66 1.98 1 3 C-0.32255312 4.67523395 -1.65705519 6.34106818 -3 8 C-3.165 8.886875 -3.33 9.77375 -3.5 10.6875 C-3.665 11.450625 -3.83 12.21375 -4 13 C-5.33333333 13.66666667 -6.66666667 14.33333333 -8 15 C-9.76727858 18.0334467 -9.76727858 18.0334467 -11 21 C-11.99 21 -12.98 21 -14 21 C-12.51582039 17.81961511 -10.71836286 15.04691888 -8.6875 12.1875 C-7.76324219 10.88232422 -7.76324219 10.88232422 -6.8203125 9.55078125 C-6.21960938 8.70902344 -5.61890625 7.86726562 -5 7 C-4.48179687 6.27167969 -3.96359375 5.54335937 -3.4296875 4.79296875 C-2.28935432 3.1932442 -1.14515489 1.59627651 0 0 Z " fill="#A14FCF" transform="translate(152,159)"/>
<path d="M0 0 C0.66 0 1.32 0 2 0 C1.6875 1.9375 1.6875 1.9375 1 4 C0.01 4.33 -0.98 4.66 -2 5 C-1.67 6.65 -1.34 8.3 -1 10 C-1.66 10 -2.32 10 -3 10 C-3 10.66 -3 11.32 -3 12 C-4.98 11.34 -6.96 10.68 -9 10 C-8.04882866 8.8274869 -7.08882991 7.66212985 -6.125 6.5 C-5.32449219 5.52546875 -5.32449219 5.52546875 -4.5078125 4.53125 C-4.01023437 4.0259375 -3.51265625 3.520625 -3 3 C-2.34 3 -1.68 3 -1 3 C-0.67 2.01 -0.34 1.02 0 0 Z " fill="#9E49D0" transform="translate(97,84)"/>
<path d="M0 0 C4.00972202 3.67557852 6.45335415 7.18966896 9 12 C7.68 12 6.36 12 5 12 C5 11.34 5 10.68 5 10 C4.01 10 3.02 10 2 10 C1.34 6.7 0.68 3.4 0 0 Z " fill="#A34FCF" transform="translate(49,106)"/>
<path d="M0 0 C0.66 0.99 1.32 1.98 2 3 C1.01 3.33 0.02 3.66 -1 4 C-0.67 4.99 -0.34 5.98 0 7 C-2.31 9.31 -4.62 11.62 -7 14 C-7.66 13.67 -8.32 13.34 -9 13 C-6.03 8.71 -3.06 4.42 0 0 Z " fill="#A451D5" transform="translate(134,184)"/>
<path d="M0 0 C0 3.69349436 -0.88153908 5.00493457 -3 8 C-5.5 10.375 -5.5 10.375 -8 12 C-8.99 11.67 -9.98 11.34 -11 11 C-7.37 7.37 -3.74 3.74 0 0 Z " fill="#1C0030" transform="translate(87,64)"/>
<path d="M0 0 C4.00972202 3.67557852 6.45335415 7.18966896 9 12 C7.68 12 6.36 12 5 12 C4.67 10.68 4.34 9.36 4 8 C3.34 8 2.68 8 2 8 C1.34 5.36 0.68 2.72 0 0 Z " fill="#A452D4" transform="translate(79,148)"/>
<path d="M0 0 C2.35729943 2.19138979 4.02057098 4.43931973 5.6875 7.1875 C6.12449219 7.90292969 6.56148438 8.61835938 7.01171875 9.35546875 C7.33785156 9.89816406 7.66398437 10.44085938 8 11 C5 11 5 11 2.875 9.4375 C0.48620794 6.33207032 0.29639545 3.85314086 0 0 Z " fill="#A450D0" transform="translate(90,163)"/>
<path d="M0 0 C0.33 0.99 0.66 1.98 1 3 C-2.83314543 8.63697858 -2.83314543 8.63697858 -6.8125 9.875 C-7.8953125 9.936875 -7.8953125 9.936875 -9 10 C-8.06409496 8.8944811 -7.12620142 7.79064547 -6.1875 6.6875 C-5.66542969 6.07261719 -5.14335938 5.45773438 -4.60546875 4.82421875 C-3.12827531 3.14575321 -1.59960869 1.56117966 0 0 Z " fill="#17012E" transform="translate(71,80)"/>
<path d="M0 0 C5.80205656 5.64524422 5.80205656 5.64524422 8 9 C8 9.66 8 10.32 8 11 C6.68 11.33 5.36 11.66 4 12 C4 10.35 4 8.7 4 7 C3.01 6.67 2.02 6.34 1 6 C0.67 4.02 0.34 2.04 0 0 Z " fill="#190327" transform="translate(108,152)"/>
<path d="M0 0 C0.33 0.66 0.66 1.32 1 2 C0.06553465 4.03144641 -0.93224776 6.03533587 -2 8 C-3.98 7.34 -5.96 6.68 -8 6 C-7.67 4.68 -7.34 3.36 -7 2 C-5.68 3.32 -4.36 4.64 -3 6 C-2.690625 5.195625 -2.38125 4.39125 -2.0625 3.5625 C-1 1 -1 1 0 0 Z " fill="#9A4CD1" transform="translate(124,198)"/>
<path d="M0 0 C1.32 0.33 2.64 0.66 4 1 C1.69 4.3 -0.62 7.6 -3 11 C-3.33 9.68 -3.66 8.36 -4 7 C-3.34 6.01 -2.68 5.02 -2 4 C-1.34 4 -0.68 4 0 4 C0 2.68 0 1.36 0 0 Z " fill="#9C4ECE" transform="translate(127,152)"/>
<path d="M0 0 C2.475 0.495 2.475 0.495 5 1 C5.99 3.97 6.98 6.94 8 10 C4.71211176 6.88983545 2.16264012 3.98381075 0 0 Z " fill="#1B022C" transform="translate(56,115)"/>
<path d="M0 0 C3.33329739 1.17115854 5.86405627 2.11647596 8 5 C8.6875 7.6875 8.6875 7.6875 9 10 C7.86800647 9.0919838 6.74467637 8.17316174 5.625 7.25 C4.99851563 6.73953125 4.37203125 6.2290625 3.7265625 5.703125 C1.91687682 3.91800519 0.99882545 2.32050356 0 0 Z " fill="#1D093D" transform="translate(147,88)"/>
<path d="M0 0 C0.598125 0.226875 1.19625 0.45375 1.8125 0.6875 C0.1625 2.6675 -1.4875 4.6475 -3.1875 6.6875 C-4.1775 6.3575 -5.1675 6.0275 -6.1875 5.6875 C-5.02477055 2.19931165 -4.06615469 -0.58087924 0 0 Z " fill="#0F061F" transform="translate(90.1875,89.3125)"/>
<path d="M0 0 C2.475 0.99 2.475 0.99 5 2 C5 2.99 5 3.98 5 5 C2.69 5 0.38 5 -2 5 C-1.34 3.35 -0.68 1.7 0 0 Z " fill="#200A2D" transform="translate(116,163)"/>
<path d="M0 0 C1.32 0 2.64 0 4 0 C4 0.66 4 1.32 4 2 C4.99 2.33 5.98 2.66 7 3 C6.67 3.33 6.34 3.66 6 4 C3.66055264 3.71269945 1.3260857 3.38063221 -1 3 C-0.67 2.01 -0.34 1.02 0 0 Z " fill="#B64DE2" transform="translate(64,224)"/>
<path d="M0 0 C0.66 0 1.32 0 2 0 C0.98823563 3.40320742 0.35156418 4.75725331 -2.625 6.8125 C-3.40875 7.204375 -4.1925 7.59625 -5 8 C-4.67 6.68 -4.34 5.36 -4 4 C-2.68 3.67 -1.36 3.34 0 3 C0 2.01 0 1.02 0 0 Z " fill="#190639" transform="translate(81,97)"/>
<path d="M0 0 C1.14926266 0.95421808 2.29430541 1.91352045 3.4375 2.875 C4.07558594 3.40867187 4.71367187 3.94234375 5.37109375 4.4921875 C7 6 7 6 8 8 C5.0280615 6.87548273 2.66559313 5.77706209 0 4 C0 2.68 0 1.36 0 0 Z " fill="#200234" transform="translate(172,84)"/>
<path d="M0 0 C1.14926266 0.95421808 2.29430541 1.91352045 3.4375 2.875 C4.07558594 3.40867187 4.71367187 3.94234375 5.37109375 4.4921875 C7 6 7 6 8 8 C5.0280615 6.87548273 2.66559313 5.77706209 0 4 C0 2.68 0 1.36 0 0 Z " fill="#1F0233" transform="translate(164,76)"/>
<path d="M0 0 C1.14926266 0.95421808 2.29430541 1.91352045 3.4375 2.875 C4.07558594 3.40867187 4.71367187 3.94234375 5.37109375 4.4921875 C7 6 7 6 8 8 C5.0280615 6.87548273 2.66559313 5.77706209 0 4 C0 2.68 0 1.36 0 0 Z " fill="#1C0134" transform="translate(156,68)"/>
<path d="M0 0 C0.99 0 1.98 0 3 0 C3.33 1.65 3.66 3.3 4 5 C4.66 5 5.32 5 6 5 C6.33 6.65 6.66 8.3 7 10 C3.66442368 7.0094833 1.84916079 4.06815373 0 0 Z " fill="#1D062E" transform="translate(103,180)"/>
<path d="M0 0 C0.68707555 2.49064888 1 4.37886292 1 7 C-0.65 7 -2.3 7 -4 7 C-2.68 4.69 -1.36 2.38 0 0 Z " fill="#9C4AD0" transform="translate(159,149)"/>
<path d="M0 0 C0.33 0.99 0.66 1.98 1 3 C0.07421875 4.82421875 0.07421875 4.82421875 -1.3125 6.6875 C-1.76238281 7.31011719 -2.21226562 7.93273437 -2.67578125 8.57421875 C-3.11277344 9.04472656 -3.54976562 9.51523438 -4 10 C-4.66 10 -5.32 10 -6 10 C-4.34832443 6.4213696 -2.21713508 3.25179812 0 0 Z " fill="#A250CB" transform="translate(187,110)"/>
<path d="M0 0 C0.33 0.99 0.66 1.98 1 3 C-0.65 4.65 -2.3 6.3 -4 8 C-4.66 7.67 -5.32 7.34 -6 7 C-4.02 4.69 -2.04 2.38 0 0 Z " fill="#9848CE" transform="translate(85,96)"/>
<path d="M0 0 C0.66 0 1.32 0 2 0 C1.67 2.97 1.34 5.94 1 9 C0.01 7.68 -0.98 6.36 -2 5 C-1.34 4.67 -0.68 4.34 0 4 C0 2.68 0 1.36 0 0 Z " fill="#B053E6" transform="translate(14,170)"/>
<path d="M0 0 C0.99 0.33 1.98 0.66 3 1 C0.525 4.465 0.525 4.465 -2 8 C-2.33 6.68 -2.66 5.36 -3 4 C-2.01 3.67 -1.02 3.34 0 3 C0 2.01 0 1.02 0 0 Z " fill="#1C0428" transform="translate(172,127)"/>
<path d="M0 0 C0.66 0 1.32 0 2 0 C2.33 0.66 2.66 1.32 3 2 C3.99 2.33 4.98 2.66 6 3 C6 4.65 6 6.3 6 8 C1.125 3.375 1.125 3.375 0 0 Z " fill="#200436" transform="translate(77,144)"/>
<path d="M0 0 C2.31 0.66 4.62 1.32 7 2 C7 3.32 7 4.64 7 6 C3.31197956 4.77065985 2.27643027 3.06140622 0 0 Z " fill="#1E0939" transform="translate(156,98)"/>
<path d="M0 0 C1.98 1.65 3.96 3.3 6 5 C5.01 5.33 4.02 5.66 3 6 C2.01 5.34 1.02 4.68 0 4 C0 2.68 0 1.36 0 0 Z " fill="#1D0231" transform="translate(180,92)"/>
<path d="M0 0 C1.98 1.65 3.96 3.3 6 5 C2.25 6.125 2.25 6.125 0 5 C0 3.35 0 1.7 0 0 Z " fill="#944BCB" transform="translate(146,88)"/>
<path d="M0 0 C2.475 0.495 2.475 0.495 5 1 C5.33 2.65 5.66 4.3 6 6 C3.97945196 4.35830472 1.97956942 2.69088222 0 1 C0 0.67 0 0.34 0 0 Z " fill="#260D4A" transform="translate(140,82)"/>
<path d="M0 0 C0.33 0.66 0.66 1.32 1 2 C1.99 2 2.98 2 4 2 C4 2.66 4 3.32 4 4 C1.69 4.33 -0.62 4.66 -3 5 C-2.01 3.35 -1.02 1.7 0 0 Z " fill="#B352E2" transform="translate(28,42)"/>
</svg>
