<?xml version="1.0" encoding="UTF-8"?>
<svg version="1.1" xmlns="http://www.w3.org/2000/svg" width="240" height="241">
<path d="M0 0 C1.61018303 1.49353985 3.21471151 2.99320784 4.8125 4.5 C5.48925781 5.11230469 6.16601562 5.72460938 6.86328125 6.35546875 C19.48910839 18.22222813 28.58033611 34.20247338 34.125 50.5 C34.35541992 51.17450195 34.58583984 51.84900391 34.82324219 52.54394531 C38.75137751 64.83595174 40.35219557 76.88227958 40.25 89.75 C40.24543793 90.7568132 40.24543793 90.7568132 40.24078369 91.78396606 C40.16547538 103.08071516 39.1830608 113.6931715 35.8125 124.5 C35.59819336 125.1904541 35.38388672 125.8809082 35.16308594 126.59228516 C30.30750241 141.67145176 22.90194465 155.280378 12.8125 167.5 C12.01457031 168.47453125 11.21664062 169.4490625 10.39453125 170.453125 C-8.98171149 192.84866124 -37.56327091 207.97061277 -67.1875 210.5 C-99.36350676 212.46149785 -131.93755656 205.40620051 -156.75 183.6953125 C-157.554375 182.97085938 -158.35875 182.24640625 -159.1875 181.5 C-160.425 180.47519531 -160.425 180.47519531 -161.6875 179.4296875 C-183.05303968 161.33574608 -196.94579067 133.12244506 -200.1875 105.5 C-202.31616787 71.13721864 -195.53173744 38.90011424 -172.6171875 12.1796875 C-151.12233051 -11.52685895 -123.48458001 -27.88540948 -90.90625 -30.37109375 C-57.01088268 -31.97820168 -25.64856841 -22.72509937 0 0 Z " fill="#FAAB4D" transform="translate(200.1875,30.5)"/>
<path d="M0 0 C1.20085236 0.00539291 1.20085236 0.00539291 2.42596436 0.01089478 C3.26491745 0.01074875 4.10387054 0.01060272 4.96824646 0.01045227 C7.75487816 0.01115167 10.54144388 0.01894531 13.32806396 0.02676392 C15.25477563 0.028628 17.18148777 0.03005195 19.10820007 0.03105164 C24.18978169 0.03487758 29.27133491 0.04470851 34.35290527 0.05575562 C39.53407405 0.0659681 44.7152474 0.07054891 49.89642334 0.07559204 C60.07026397 0.08633071 70.24408348 0.10340804 80.41790771 0.12442017 C82.67282788 6.55826992 84.50234851 13.03105909 86.14520264 19.64541626 C86.52624901 21.16171631 86.52624901 21.16171631 86.91499329 22.70864868 C87.74632001 26.02084474 88.57252831 29.33429173 89.39837646 32.64785767 C89.97680886 34.95956498 90.55545077 37.27121988 91.1342926 39.58282471 C92.34269845 44.41203768 93.54856284 49.2418762 94.75262451 54.07217407 C96.29801096 60.27087154 97.84976832 66.46795346 99.4034071 72.66458702 C100.59751152 77.43018448 101.78826409 82.19661445 102.9779911 86.96330643 C103.54910903 89.24978182 104.12127897 91.53599471 104.69450951 93.82194138 C105.49268494 97.0070515 106.28634802 100.19325218 107.07879639 103.37979126 C107.43640549 104.80111862 107.43640549 104.80111862 107.80123901 106.25115967 C108.01567154 107.11734924 108.23010406 107.98353882 108.45103455 108.87597656 C108.63887103 109.62845358 108.82670752 110.3809306 109.02023602 111.15620995 C109.41790771 113.12442017 109.41790771 113.12442017 109.41790771 116.12442017 C61.89790771 116.12442017 14.37790771 116.12442017 -34.58209229 116.12442017 C-33.24337336 108.76146606 -31.80515814 101.58131497 -29.98419189 94.34463501 C-29.605774 92.823078 -29.605774 92.823078 -29.2197113 91.27078247 C-28.39480641 87.95808462 -27.56481523 84.64668717 -26.73443604 81.33535767 C-26.15655747 79.02182071 -25.57888841 76.70823142 -25.00141907 74.39459229 C-23.79582058 69.5677928 -22.58769084 64.74163597 -21.37774658 59.91592407 C-19.823791 53.71728497 -18.27623726 47.51706818 -16.73053646 41.3163662 C-15.54153825 36.54956672 -14.34919877 31.78360803 -13.15582466 27.01790237 C-12.58342298 24.73030151 -12.01207587 22.44243651 -11.44178581 20.15430832 C-10.6481256 16.97209475 -9.84998635 13.79103874 -9.05059814 10.61026001 C-8.81421631 9.65865997 -8.57783447 8.70705994 -8.33428955 7.72662354 C-8.1170372 6.86607361 -7.89978485 6.00552368 -7.6759491 5.11889648 C-7.48773559 4.36717352 -7.29952208 3.61545055 -7.10560513 2.8409481 C-5.96370664 -0.90318288 -3.49435223 0.00662568 0 0 Z " fill="#040202" transform="translate(82.58209228515625,64.87557983398438)"/>
<path d="M0 0 C17.82 0 35.64 0 54 0 C57.95294599 15.65134871 57.95294599 15.65134871 59.63867188 22.359375 C60.78592107 26.92452298 61.9341706 31.48940188 63.08862305 36.05273438 C64.01999779 39.73455818 64.9466795 43.41753485 65.87021065 47.10133362 C66.22217811 48.50185101 66.57579341 49.90195542 66.93113518 51.30162048 C67.43112388 53.27225517 67.92506567 55.24431886 68.41772461 57.21679688 C68.69974228 58.33598511 68.98175995 59.45517334 69.27232361 60.60827637 C70.07798412 64.36348657 70.52362438 68.18899504 71 72 C41.96 72 12.92 72 -17 72 C-16.34774322 66.78194573 -15.68157151 62.23237829 -14.41772461 57.21679688 C-14.26152145 56.59140015 -14.1053183 55.96600342 -13.94438171 55.32165527 C-13.43483052 53.28620313 -12.91866331 51.25249472 -12.40234375 49.21875 C-12.04463611 47.79539179 -11.68734812 46.37192807 -11.33045959 44.94836426 C-10.39592912 41.22542 -9.45575178 37.50392492 -8.51434326 33.78271484 C-7.38280842 29.30494498 -6.25838 24.8253859 -5.13274384 20.34613037 C-3.42723421 13.56270971 -1.7127806 6.78160705 0 0 Z " fill="#F9AA4D" transform="translate(93,87)"/>
<path d="M0 0 C2 4 2 4 3 11 C-44.52 11 -92.04 11 -141 11 C-140.67 10.01 -140.34 9.02 -140 8 C-140 8.66 -140 9.32 -140 10 C-139.12823812 9.83748025 -138.25647625 9.6749605 -137.35829735 9.50751591 C-134.2586065 9.03908139 -131.39671831 8.87676503 -128.26724243 8.87974548 C-127.14832611 8.87837082 -126.02940979 8.87699615 -124.87658691 8.87557983 C-123.66386108 8.87917511 -122.45113525 8.88277039 -121.20166016 8.88647461 C-119.91331268 8.88632858 -118.62496521 8.88618256 -117.2975769 8.8860321 C-113.77736925 8.88574596 -110.25719588 8.89161308 -106.73699617 8.89860606 C-103.05345618 8.90487009 -99.36991535 8.90544581 -95.68637085 8.90663147 C-88.71670075 8.9097358 -81.74704639 8.91793707 -74.77738321 8.92798096 C-66.84027513 8.93917 -58.9031663 8.94465958 -50.96605229 8.94967639 C-34.64402566 8.96012045 -18.32201484 8.97770248 -2 9 C-1.34 6.03 -0.68 3.06 0 0 Z " fill="#3A1600" transform="translate(189,170)"/>
<path d="M0 0 C1.20085236 0.00539291 1.20085236 0.00539291 2.42596436 0.01089478 C3.26491745 0.01074875 4.10387054 0.01060272 4.96824646 0.01045227 C7.75487816 0.01115167 10.54144388 0.01894531 13.32806396 0.02676392 C15.25477563 0.028628 17.18148777 0.03005195 19.10820007 0.03105164 C24.18978169 0.03487758 29.27133491 0.04470851 34.35290527 0.05575562 C39.53407405 0.0659681 44.7152474 0.07054891 49.89642334 0.07559204 C60.07026397 0.08633071 70.24408348 0.10340804 80.41790771 0.12442017 C80.89295208 1.53421093 81.36664268 2.9444579 81.83978271 4.35488892 C82.10371826 5.14016968 82.36765381 5.92545044 82.6395874 6.73452759 C85.83386239 16.54279541 85.83386239 16.54279541 84.41790771 21.12442017 C81.68123738 17.01941466 81.18176352 12.84821723 80.19915771 8.05801392 C79.65437256 5.02666957 79.65437256 5.02666957 77.41790771 3.12442017 C74.79765051 2.93650102 72.28399457 2.87256231 69.66351318 2.89736938 C68.86342834 2.89707733 68.06334351 2.89678528 67.23901367 2.89648438 C64.58759818 2.89788061 61.93646177 2.91345547 59.28509521 2.92910767 C57.44949497 2.93283676 55.61389274 2.93568422 53.77828979 2.93768311 C48.9416354 2.94532776 44.10510069 2.96498336 39.26849365 2.98709106 C34.33524189 3.0075316 29.40197084 3.01668098 24.46868896 3.02676392 C14.78504256 3.0482285 5.10148508 3.08237445 -4.58209229 3.12442017 C-5.24209229 5.76442017 -5.90209229 8.40442017 -6.58209229 11.12442017 C-7.24209229 11.12442017 -7.90209229 11.12442017 -8.58209229 11.12442017 C-8.27426732 9.47770604 -7.96069994 7.8320644 -7.64459229 6.18692017 C-7.47056885 5.27039673 -7.29654541 4.35387329 -7.11724854 3.40957642 C-6.1113406 -0.8857239 -4.02948456 0.00764035 0 0 Z " fill="#46280C" transform="translate(82.58209228515625,64.87557983398438)"/>
<path d="M0 0 C2 4 2 4 3 12 C-26.04 12 -55.08 12 -85 12 C-85 10.68 -85 9.36 -85 8 C-83.99891205 8.2131636 -83.99891205 8.2131636 -82.9776001 8.43063354 C-73.90545204 10.1698255 -65.04759738 10.25837901 -55.859375 10.1953125 C-54.23984961 10.19157314 -52.62032193 10.18873054 -51.00079346 10.18673706 C-46.77912938 10.17917316 -42.55760728 10.15958873 -38.33599854 10.1373291 C-34.01177896 10.11671279 -29.68753601 10.1077019 -25.36328125 10.09765625 C-16.90878968 10.0763345 -8.4544126 10.04228836 0 10 C0 6.7 0 3.4 0 0 Z " fill="#E8AA61" transform="translate(161,147)"/>
<path d="M0 0 C18.15 0.33 36.3 0.66 55 1 C55 1.33 55 1.66 55 2 C37.18 2 19.36 2 1 2 C0.67 4.64 0.34 7.28 0 10 C-0.66 9.01 -1.32 8.02 -2 7 C-1.34 4.69 -0.68 2.38 0 0 Z " fill="#2D0300" transform="translate(92,85)"/>
<path d="M0 0 C0.66 0 1.32 0 2 0 C2.12375 1.03125 2.2475 2.0625 2.375 3.125 C2.94402206 6.65293679 3.83326917 9.63706996 5 13 C5.70905349 15.65774472 6.35449353 18.32575891 7 21 C7.66 21 8.32 21 9 21 C8.67 24.3 8.34 27.6 8 31 C5.48899072 25.97798143 4.27155942 20.91918513 2.875 15.5 C2.45927734 13.93185547 2.45927734 13.93185547 2.03515625 12.33203125 C1.64263672 10.82189453 1.64263672 10.82189453 1.2421875 9.28125 C1.0035498 8.36408203 0.76491211 7.44691406 0.51904297 6.50195312 C0 4 0 4 0 0 Z " fill="#250E04" transform="translate(151,104)"/>
<path d="M0 0 C0.99 0 1.98 0 3 0 C2.5413579 2.14032981 2.047812 3.91184663 1 5.84375 C-0.10494201 8.22628121 -0.39497346 10.14303252 -0.625 12.75 C-0.69976562 13.54921875 -0.77453125 14.3484375 -0.8515625 15.171875 C-0.90054688 15.77515625 -0.94953125 16.3784375 -1 17 C-1.66 17 -2.32 17 -3 17 C-3.66 18.98 -4.32 20.96 -5 23 C-6.31952493 20.36095013 -5.75787616 19.29756995 -5.0390625 16.46484375 C-4.81476563 15.57345703 -4.59046875 14.68207031 -4.359375 13.76367188 C-4.11703125 12.83103516 -3.8746875 11.89839844 -3.625 10.9375 C-3.39039062 10.00099609 -3.15578125 9.06449219 -2.9140625 8.09960938 C-1.14019224 1.14019224 -1.14019224 1.14019224 0 0 Z " fill="#E1A154" transform="translate(85,122)"/>
<path d="M0 0 C0.33 0 0.66 0 1 0 C0.85973717 2.31284456 0.71264442 4.62527591 0.5625 6.9375 C0.48128906 8.22527344 0.40007813 9.51304687 0.31640625 10.83984375 C0 14 0 14 -1 15 C-1.12375 16.134375 -1.2475 17.26875 -1.375 18.4375 C-1.58125 19.613125 -1.7875 20.78875 -2 22 C-2.99 22.66 -3.98 23.32 -5 24 C-4.39496146 18.3444819 -3.37814297 12.99786009 -1.9375 7.5 C-1.75123047 6.77296875 -1.56496094 6.0459375 -1.37304688 5.296875 C-0.91973545 3.53012276 -0.4604998 1.76489225 0 0 Z " fill="#381B0A" transform="translate(61,126)"/>
<path d="M0 0 C0.66 0 1.32 0 2 0 C1.37768893 2.85477651 0.75223464 5.70880481 0.125 8.5625 C-0.04902344 9.36236328 -0.22304687 10.16222656 -0.40234375 10.98632812 C-1.44443603 15.71433941 -2.61731723 20.35991592 -4 25 C-4.33 25 -4.66 25 -5 25 C-4.49638177 19.25875219 -3.61765007 13.65284662 -2.5 8 C-2.36940186 7.3289624 -2.23880371 6.6579248 -2.10424805 5.96655273 C-1.12376909 1.12376909 -1.12376909 1.12376909 0 0 Z " fill="#E8A75F" transform="translate(68,92)"/>
<path d="M0 0 C2 4 2 4 3 12 C-4.59 12 -12.18 12 -20 12 C-20 11.67 -20 11.34 -20 11 C-10.1 10.505 -10.1 10.505 0 10 C0 6.7 0 3.4 0 0 Z " fill="#E0A260" transform="translate(161,147)"/>
<path d="M0 0 C4.97912623 4.97912623 5.92353558 16.03477382 6.0546875 22.8359375 C6.03664062 23.55007812 6.01859375 24.26421875 6 25 C4.09336561 22.14004841 3.45887815 20.4190729 2.67578125 17.1484375 C2.45212891 16.21515625 2.22847656 15.281875 1.99804688 14.3203125 C1.65870117 12.86238281 1.65870117 12.86238281 1.3125 11.375 C1.07466797 10.3953125 0.83683594 9.415625 0.59179688 8.40625 C-0.68606656 2.99500424 -0.68606656 2.99500424 -1 1 C-0.67 0.67 -0.34 0.34 0 0 Z " fill="#E8A65C" transform="translate(171,92)"/>
<path d="M0 0 C0.66 0 1.32 0 2 0 C2.33 2.31 2.66 4.62 3 7 C3.66 7 4.32 7 5 7 C5.66 12.61 6.32 18.22 7 24 C5.07802848 21.11704273 4.47154063 19.4159001 3.7109375 16.11328125 C3.49179688 15.17548828 3.27265625 14.23769531 3.046875 13.27148438 C2.82515625 12.29501953 2.6034375 11.31855469 2.375 10.3125 C2.03082031 8.83040039 2.03082031 8.83040039 1.6796875 7.31835938 C1.11429827 4.88011831 0.55463389 2.44070603 0 0 Z " fill="#E6A65D" transform="translate(178,125)"/>
<path d="M0 0 C0.33 0 0.66 0 1 0 C1.68912276 13.97387825 1.68912276 13.97387825 -1 17.875 C-1.66 18.57625 -2.32 19.2775 -3 20 C-4.37344385 15.60155678 -3.24307502 12.07495445 -2.0625 7.75 C-1.86720703 7.00492187 -1.67191406 6.25984375 -1.47070312 5.4921875 C-0.98895802 3.65920614 -0.49560775 1.82928182 0 0 Z " fill="#341507" transform="translate(67,102)"/>
<path d="M0 0 C0.66 0 1.32 0 2 0 C1.68806536 1.72926874 1.37542638 3.45841044 1.0625 5.1875 C0.88847656 6.15042969 0.71445313 7.11335938 0.53515625 8.10546875 C0.0476265 10.74239972 -0.46671105 13.3719905 -1 16 C-1.33 16 -1.66 16 -2 16 C-3.44267751 6.07507396 -3.44267751 6.07507396 -1.6875 1.8125 C-1.130625 1.214375 -0.57375 0.61625 0 0 Z " fill="#1A0C03" transform="translate(83,120)"/>
<path d="M0 0 C1.67641098 4.09086452 0.2409319 7.71511018 -0.9375 11.75 C-1.13279297 12.44738281 -1.32808594 13.14476563 -1.52929688 13.86328125 C-2.0108246 15.57798973 -2.50425157 17.28934877 -3 19 C-3.33 19 -3.66 19 -4 19 C-3.67 14.71 -3.34 10.42 -3 6 C-2.34 6 -1.68 6 -1 6 C-0.67 4.02 -0.34 2.04 0 0 Z " fill="#EAA95D" transform="translate(75,66)"/>
<path d="M0 0 C0.33 0 0.66 0 1 0 C1.19286332 5.49660457 0.90303246 9.81952275 -1 15 C-1.99 15.495 -1.99 15.495 -3 16 C-2.40984815 10.49191603 -1.43336231 5.35121931 0 0 Z " fill="#341506" transform="translate(71,86)"/>
<path d="M0 0 C0.33 0 0.66 0 1 0 C0.91321237 2.29239061 0.80504727 4.5839807 0.6875 6.875 C0.62949219 8.15117187 0.57148437 9.42734375 0.51171875 10.7421875 C0.34285156 11.81726563 0.17398438 12.89234375 0 14 C-0.99 14.66 -1.98 15.32 -3 16 C-2.40984815 10.49191603 -1.43336231 5.35121931 0 0 Z " fill="#351906" transform="translate(55,150)"/>
<path d="M0 0 C2.00293347 3.00440021 2.49271626 4.70993945 3.125 8.1875 C3.29257813 9.08855469 3.46015625 9.98960937 3.6328125 10.91796875 C3.75398437 11.60503906 3.87515625 12.29210937 4 13 C3.01 12.67 2.02 12.34 1 12 C0.01 12.495 0.01 12.495 -1 13 C-0.9278125 12.39671875 -0.855625 11.7934375 -0.78125 11.171875 C-0.6884375 10.37265625 -0.595625 9.5734375 -0.5 8.75 C-0.4071875 7.96109375 -0.314375 7.1721875 -0.21875 6.359375 C0.06154619 3.73109603 0.06154619 3.73109603 0 0 Z " fill="#DD9D51" transform="translate(155,124)"/>
<path d="M0 0 C1.39073768 2.62890497 2.43969204 5.12122047 3.1875 8 C3.36667969 8.66 3.54585937 9.32 3.73046875 10 C4.03576811 12.26540976 3.68136613 13.835092 3 16 C0.65229357 12.47844036 0.62330386 10.49228157 0.375 6.3125 C0.30023438 5.13300781 0.22546875 3.95351562 0.1484375 2.73828125 C0.09945312 1.83464844 0.05046875 0.93101563 0 0 Z " fill="#3C1709" transform="translate(164,70)"/>
<path d="M0 0 C1.65 0 3.3 0 5 0 C3.60667426 3.36720387 2.0210714 4.9859524 -1 7 C-0.67 4.69 -0.34 2.38 0 0 Z " fill="#EDB051" transform="translate(210,194)"/>
<path d="M0 0 C1.9955516 3.99110319 2.19546065 5.69986566 2 10 C0.68 9.67 -0.64 9.34 -2 9 C-1.34 6.03 -0.68 3.06 0 0 Z " fill="#240E06" transform="translate(189,170)"/>
<path d="M0 0 C2.7710688 2.34591852 3.52059284 4.14776201 4.1875 7.6875 C4.34605469 8.49574219 4.50460938 9.30398437 4.66796875 10.13671875 C4.77753906 10.75160156 4.88710937 11.36648437 5 12 C4.34 11.67 3.68 11.34 3 11 C3 9.68 3 8.36 3 7 C2.01 6.67 1.02 6.34 0 6 C0 4.02 0 2.04 0 0 Z " fill="#EEA85C" transform="translate(156,134)"/>
<path d="M0 0 C0.66 0.33 1.32 0.66 2 1 C1.6875 4.375 1.6875 4.375 1 8 C0.01 8.66 -0.98 9.32 -2 10 C-1.125 2.25 -1.125 2.25 0 0 Z " fill="#2F1005" transform="translate(58,140)"/>
<path d="M0 0 C1.66611905 -0.042721 3.33382885 -0.04063832 5 0 C6 1 6 1 6.0625 3.5625 C6.041875 4.366875 6.02125 5.17125 6 6 C3.97945196 4.35830472 1.97956942 2.69088222 0 1 C0 0.67 0 0.34 0 0 Z " fill="#E8B254" transform="translate(25,195)"/>
<path d="M0 0 C1.5625 1.8125 1.5625 1.8125 3 4 C2.67 4.99 2.34 5.98 2 7 C1.01 7.33 0.02 7.66 -1 8 C-0.67 5.36 -0.34 2.72 0 0 Z " fill="#2C1105" transform="translate(73,78)"/>
<path d="M0 0 C0.66 0 1.32 0 2 0 C3.625 2.5 3.625 2.5 5 5 C4.01 5.33 3.02 5.66 2 6 C1.34 5.67 0.68 5.34 0 5 C0 3.35 0 1.7 0 0 Z " fill="#F8AE3E" transform="translate(178,16)"/>
<path d="M0 0 C0 0.99 0 1.98 0 3 C-0.99 3.33 -1.98 3.66 -3 4 C-3 4.99 -3 5.98 -3 7 C-4.32 6.67 -5.64 6.34 -7 6 C-4.69 4.02 -2.38 2.04 0 0 Z " fill="#EEAE4F" transform="translate(46,25)"/>
</svg>
