<svg width="15" height="16" viewBox="0 0 15 16" fill="none" xmlns="http://www.w3.org/2000/svg">
<path fill-rule="evenodd" clip-rule="evenodd" d="M7.49967 1.83301C4.09392 1.83301 1.33301 4.59392 1.33301 7.99967C1.33301 11.4054 4.09392 14.1663 7.49967 14.1663C10.9054 14.1663 13.6663 11.4054 13.6663 7.99967C13.6663 4.59392 10.9054 1.83301 7.49967 1.83301ZM0.333008 7.99967C0.333008 4.04163 3.54163 0.833008 7.49967 0.833008C11.4577 0.833008 14.6663 4.04163 14.6663 7.99967C14.6663 11.9577 11.4577 15.1663 7.49967 15.1663C3.54163 15.1663 0.333008 11.9577 0.333008 7.99967ZM6.99967 5.33301C6.99967 5.05687 7.22353 4.83301 7.49967 4.83301H7.50634C7.78248 4.83301 8.00634 5.05687 8.00634 5.33301C8.00634 5.60915 7.78248 5.83301 7.50634 5.83301H7.49967C7.22353 5.83301 6.99967 5.60915 6.99967 5.33301ZM7.49967 7.49967C7.77582 7.49967 7.99967 7.72353 7.99967 7.99967V10.6663C7.99967 10.9425 7.77582 11.1663 7.49967 11.1663C7.22353 11.1663 6.99967 10.9425 6.99967 10.6663V7.99967C6.99967 7.72353 7.22353 7.49967 7.49967 7.49967Z" fill="#ADB2A4"/>
</svg>
