<?xml version="1.0" encoding="UTF-8"?>
<svg version="1.1" xmlns="http://www.w3.org/2000/svg" width="240" height="240">
<path d="M0 0 C0.65613281 0.18804199 1.31226563 0.37608398 1.98828125 0.56982422 C17.90232538 5.27885281 33.66596277 12.78924116 46 24 C46.825 24.70769531 47.65 25.41539063 48.5 26.14453125 C66.94005983 42.19525406 79.37967025 62.45296633 86 86 C86.48146484 87.70736328 86.48146484 87.70736328 86.97265625 89.44921875 C91.24032317 107.81011131 91.22784204 129.87151355 86 148 C85.81195801 148.65613281 85.62391602 149.31226563 85.43017578 149.98828125 C80.72114719 165.90232538 73.21075884 181.66596277 62 194 C61.29230469 194.825 60.58460938 195.65 59.85546875 196.5 C43.80474594 214.94005983 23.54703367 227.37967025 0 234 C-1.70736328 234.48146484 -1.70736328 234.48146484 -3.44921875 234.97265625 C-21.81011131 239.24032317 -43.87151355 239.22784204 -62 234 C-62.65613281 233.81195801 -63.31226562 233.62391602 -63.98828125 233.43017578 C-79.90232538 228.72114719 -95.66596277 221.21075884 -108 210 C-108.825 209.29230469 -109.65 208.58460938 -110.5 207.85546875 C-128.94005983 191.80474594 -141.37967025 171.54703367 -148 148 C-148.48146484 146.29263672 -148.48146484 146.29263672 -148.97265625 144.55078125 C-153.24032317 126.18988869 -153.22784204 104.12848645 -148 86 C-147.81195801 85.34386719 -147.62391602 84.68773438 -147.43017578 84.01171875 C-142.72114719 68.09767462 -135.21075884 52.33403723 -124 40 C-123.29230469 39.175 -122.58460937 38.35 -121.85546875 37.5 C-105.80474594 19.05994017 -85.54703367 6.62032975 -62 0 C-60.86175781 -0.32097656 -59.72351563 -0.64195313 -58.55078125 -0.97265625 C-40.18988869 -5.24032317 -18.12848645 -5.22784204 0 0 Z " fill="#28AB83" transform="translate(151,3)"/>
<path d="M0 0 C11.61254021 8.18004272 20.81520028 21.82125881 23.3125 35.87890625 C25.16204571 52.47197349 22.98801266 66.37764748 13.72265625 80.55859375 C10.59498002 84.44296584 7.24631391 88.03493609 3.72265625 91.55859375 C3.47576152 95.05169701 3.33829854 98.54401393 3.19921875 102.04296875 C2.66693824 105.96962825 1.54988563 108.73136437 -1.27734375 111.55859375 C-5.09745651 111.91898175 -7.4341846 112.09908038 -10.71484375 109.99609375 C-12.80215655 106.73988578 -12.56888605 104.34864359 -12.27734375 100.55859375 C-12.880625 100.76355469 -13.48390625 100.96851563 -14.10546875 101.1796875 C-14.9046875 101.44910156 -15.70390625 101.71851563 -16.52734375 101.99609375 C-17.31625 102.26292969 -18.10515625 102.52976562 -18.91796875 102.8046875 C-24.08650245 104.45622227 -28.62655838 104.74168134 -34.02734375 104.74609375 C-35.1875 104.76446289 -35.1875 104.76446289 -36.37109375 104.78320312 C-41.66646893 104.79653041 -46.18835494 104.02835878 -51.27734375 102.55859375 C-51.37015625 104.41484375 -51.37015625 104.41484375 -51.46484375 106.30859375 C-51.88206195 109.77518619 -52.11049216 110.39174216 -54.71484375 112.99609375 C-58.89076151 115.54238507 -61.3096783 115.97958235 -66.27734375 115.55859375 C-69.80881927 113.3612312 -71.72525815 111.38297421 -73.27734375 107.55859375 C-73.50439453 105.26855469 -73.50439453 105.26855469 -73.47265625 102.79296875 C-73.46621094 101.90351563 -73.45976563 101.0140625 -73.453125 100.09765625 C-73.43636719 99.17726563 -73.41960937 98.256875 -73.40234375 97.30859375 C-73.39332031 96.37273437 -73.38429688 95.436875 -73.375 94.47265625 C-73.35148011 92.16770718 -73.31861228 89.86328215 -73.27734375 87.55859375 C-74.76234375 87.06359375 -74.76234375 87.06359375 -76.27734375 86.55859375 C-86.528997 75.12735697 -90.45501301 62.88797382 -90.52734375 47.93359375 C-90.54796875 46.89074219 -90.56859375 45.84789062 -90.58984375 44.7734375 C-90.66480366 29.76271629 -84.91267649 17.68101856 -74.625 6.84375 C-53.55962223 -13.66081905 -24.65461723 -15.60472343 0 0 Z " fill="#010604" transform="translate(153.27734375,72.44140625)"/>
<path d="M0 0 C3.3 0 6.6 0 10 0 C10.01458252 1.12494873 10.02916504 2.24989746 10.04418945 3.40893555 C10.10227754 7.59317387 10.17950964 11.77687997 10.26245117 15.96069336 C10.29565114 17.76952458 10.32369841 19.57845818 10.34643555 21.38745117 C10.38007258 23.99181633 10.43239195 26.5952476 10.48828125 29.19921875 C10.49467117 30.00461594 10.5010611 30.81001312 10.50764465 31.63981628 C10.62739899 36.24028983 11.07391366 39.2399191 14 43 C17.07919947 45.56599956 18.51778879 46.00845985 22.5625 45.9375 C26.27732142 44.92436688 27.64940539 43.983447 30 41 C31.39560045 38.20879909 31.21808288 35.79794308 31.31640625 32.6796875 C31.37924805 30.79443359 31.37924805 30.79443359 31.44335938 28.87109375 C31.48267578 27.55238281 31.52199219 26.23367187 31.5625 24.875 C31.60569512 23.53514249 31.64930973 22.19529844 31.69335938 20.85546875 C31.79970981 17.57042185 31.90173808 14.28529719 32 11 C38.61368069 17.35802581 42.17328571 23.03237362 42.49414062 32.31762695 C42.5122519 39.25651052 42.18000189 45.70436872 39 52 C38.67128906 52.68191406 38.34257812 53.36382812 38.00390625 54.06640625 C33.72884658 61.8621033 26.30167227 67.34345891 18 70.33984375 C8.15481871 72.5062964 -3.27929225 72.47363571 -12 67 C-20.51087385 60.96451103 -27.19523827 52.46761801 -29 42 C-29.58754872 34.39391481 -29.05818626 28.00507622 -26 21 C-25.69835937 20.2884375 -25.39671875 19.576875 -25.0859375 18.84375 C-23.05688642 14.42272813 -20.77821509 11.18165482 -17 8 C-16.34 8 -15.68 8 -15 8 C-14.96132812 9.66289063 -14.96132812 9.66289063 -14.921875 11.359375 C-14.86558344 12.82295547 -14.80823633 14.28649562 -14.75 15.75 C-14.73582031 16.47960937 -14.72164062 17.20921875 -14.70703125 17.9609375 C-14.54576735 21.50874334 -14.2856761 23.62460744 -12.109375 26.484375 C-10.07941833 28.16304569 -10.07941833 28.16304569 -7.5 28.5 C-4.17028226 27.83405645 -3.12339829 26.61926193 -1 24 C-0.3636349 21.30762013 -0.3636349 21.30762013 -0.390625 18.359375 C-0.34228516 16.75449219 -0.34228516 16.75449219 -0.29296875 15.1171875 C-0.27878906 14.00601563 -0.26460937 12.89484375 -0.25 11.75 C-0.22035156 10.62335938 -0.19070312 9.49671875 -0.16015625 8.3359375 C-0.08951088 5.55721979 -0.03678723 2.77933852 0 0 Z " fill="#2AAA82" transform="translate(113,84)"/>
<path d="M0 0 C1.44439736 2.29501947 2.11795567 3.42360624 1.56323242 6.13427734 C1.26779541 6.9020752 0.9723584 7.66987305 0.66796875 8.4609375 C-1.34712391 14.51399576 -1.5527052 20.28579292 -1.6875 26.625 C-1.72166016 27.72457031 -1.75582031 28.82414062 -1.79101562 29.95703125 C-1.87260785 32.63791863 -1.942041 35.31851548 -2 38 C-4.66876904 35.33123096 -4.62013792 33.74740345 -5 30 C-4.97283532 27.03138803 -4.78073969 24.08503253 -4.5625 21.125 C-4.51029297 20.34125 -4.45808594 19.5575 -4.40429688 18.75 C-4.27571149 16.8329088 -4.13871383 14.91638497 -4 13 C-3.34 13 -2.68 13 -2 13 C-1.93941406 12.22914062 -1.87882812 11.45828125 -1.81640625 10.6640625 C-1.69072266 9.15972656 -1.69072266 9.15972656 -1.5625 7.625 C-1.48128906 6.62726563 -1.40007813 5.62953125 -1.31640625 4.6015625 C-1 2 -1 2 0 0 Z " fill="#358C71" transform="translate(65,94)"/>
<path d="M0 0 C2.64752004 2.57784846 4.94432065 4.91648098 7 8 C6.67 8.99 6.34 9.98 6 11 C4.5 9.75 4.5 9.75 3 8 C3 6.68 3 5.36 3 4 C2.34 4 1.68 4 1 4 C1.02356567 5.14214966 1.02356567 5.14214966 1.04760742 6.30737305 C1.11008453 9.7673394 1.14903172 13.2271869 1.1875 16.6875 C1.21263672 17.88568359 1.23777344 19.08386719 1.26367188 20.31835938 C1.27817383 22.05375977 1.27817383 22.05375977 1.29296875 23.82421875 C1.3086792 24.88729248 1.32438965 25.95036621 1.34057617 27.0456543 C0.94676838 30.46176048 0.12755029 32.30999737 -2 35 C-5.6875 35.8125 -5.6875 35.8125 -9 36 C-8.401875 35.566875 -7.80375 35.13375 -7.1875 34.6875 C-4.57798235 32.67444353 -2.48240178 30.96480355 -1 28 C-0.84558791 25.89625004 -0.75007361 23.78804881 -0.68359375 21.6796875 C-0.64169922 20.42285156 -0.59980469 19.16601562 -0.55664062 17.87109375 C-0.51732422 16.55238281 -0.47800781 15.23367187 -0.4375 13.875 C-0.39430488 12.53514249 -0.35069027 11.19529844 -0.30664062 9.85546875 C-0.20029019 6.57042185 -0.09826192 3.28529719 0 0 Z " fill="#3C9D7E" transform="translate(145,95)"/>
<path d="M0 0 C2.64 0.33 5.28 0.66 8 1 C8 1.33 8 1.66 8 2 C5.69 1.67 3.38 1.34 1 1 C1.33 3.31 1.66 5.62 2 8 C1.34 8 0.68 8 0 8 C-0.0928125 8.928125 -0.0928125 8.928125 -0.1875 9.875 C-1 12 -1 12 -3.1953125 13.11328125 C-6.16602147 14.05248868 -8.5785801 14.29977591 -11.6875 14.3125 C-12.64011719 14.32925781 -13.59273438 14.34601563 -14.57421875 14.36328125 C-15.77498047 14.18345703 -15.77498047 14.18345703 -17 14 C-17.66 13.01 -18.32 12.02 -19 11 C-18.484375 11.165 -17.96875 11.33 -17.4375 11.5 C-12.66664104 12.47863774 -9.17131825 12.53040826 -4.6875 10.5 C-1.07602524 7.1404886 -0.80033414 4.80200482 0 0 Z " fill="#399F7D" transform="translate(102,175)"/>
<path d="M0 0 C-3.04681061 2.03120707 -3.60118324 2.24659875 -7.01171875 2.1953125 C-7.76904297 2.18886719 -8.52636719 2.18242187 -9.30664062 2.17578125 C-10.09232422 2.15902344 -10.87800781 2.14226562 -11.6875 2.125 C-12.48478516 2.11597656 -13.28207031 2.10695312 -14.10351562 2.09765625 C-16.069139 2.07411585 -18.03460775 2.03824547 -20 2 C-20 1.34 -20 0.68 -20 0 C-13.12631267 -0.74464946 -6.83079148 -1.18225237 0 0 Z " fill="#3AA180" transform="translate(131,153)"/>
<path d="M0 0 C0.66 0 1.32 0 2 0 C1.51574723 7.36398184 0.14918639 12.77622041 -4 19 C-4.66 18.67 -5.32 18.34 -6 18 C-5.73445312 17.45472656 -5.46890625 16.90945312 -5.1953125 16.34765625 C-2.67845156 10.97406628 -1.04873594 5.83704346 0 0 Z " fill="#319372" transform="translate(176,128)"/>
<path d="M0 0 C0.33 0.99 0.66 1.98 1 3 C0.67 3.33 0.34 3.66 0 4 C-0.23693296 7.15158451 -0.39590076 10.29544912 -0.51757812 13.453125 C-0.7065998 17.11943226 -0.91643958 18.87465937 -3 22 C-3.99 21.67 -4.98 21.34 -6 21 C-5.51660156 20.32324219 -5.03320312 19.64648438 -4.53515625 18.94921875 C-2.68713455 15.39894806 -2.56759238 12.79500547 -2.4375 8.8125 C-2.20932755 2.20932755 -2.20932755 2.20932755 0 0 Z " fill="#349E7D" transform="translate(158,162)"/>
<path d="M0 0 C1.09506492 3.28519475 1.09960608 5.73663415 1.0625 9.1875 C1.05347656 10.27417969 1.04445313 11.36085938 1.03515625 12.48046875 C1.02355469 13.31191406 1.01195313 14.14335938 1 15 C0.67 15 0.34 15 0 15 C-0.33 11.7 -0.66 8.4 -1 5 C-2.32 5.33 -3.64 5.66 -5 6 C-3.35 4.02 -1.7 2.04 0 0 Z " fill="#26946F" transform="translate(96,92)"/>
<path d="M0 0 C3.01111938 4.51667907 3.10067926 7.6639991 3 13 C2.67 11.68 2.34 10.36 2 9 C1.34 9 0.68 9 0 9 C-0.84454356 5.62182575 -1.10844919 3.32534757 0 0 Z " fill="#051E14" transform="translate(173,99)"/>
<path d="M0 0 C1.57169068 2.45183745 2.0542179 3.61213349 1.64453125 6.54296875 C1.36996094 7.41566406 1.09539062 8.28835937 0.8125 9.1875 C0.55082031 10.06792969 0.28914063 10.94835937 0.01953125 11.85546875 C-0.31691406 12.56316406 -0.65335937 13.27085938 -1 14 C-1.99 14.33 -2.98 14.66 -4 15 C-4 14.34 -4 13.68 -4 13 C-3.34 13 -2.68 13 -2 13 C-1.93941406 12.22914062 -1.87882812 11.45828125 -1.81640625 10.6640625 C-1.69072266 9.15972656 -1.69072266 9.15972656 -1.5625 7.625 C-1.48128906 6.62726563 -1.40007813 5.62953125 -1.31640625 4.6015625 C-1 2 -1 2 0 0 Z " fill="#319D7A" transform="translate(65,94)"/>
<path d="M0 0 C0.33 0.66 0.66 1.32 1 2 C0.0625 4.125 0.0625 4.125 -1 6 C-1.66 6 -2.32 6 -3 6 C-3 7.32 -3 8.64 -3 10 C-3.66 10 -4.32 10 -5 10 C-5 10.66 -5 11.32 -5 12 C-5.66 11.67 -6.32 11.34 -7 11 C-6.02262231 9.35310365 -5.0430468 7.70751146 -4.0625 6.0625 C-3.51722656 5.14597656 -2.97195312 4.22945313 -2.41015625 3.28515625 C-1 1 -1 1 0 0 Z " fill="#021D13" transform="translate(75,83)"/>
</svg>
