<svg width="200" height="200" viewBox="0 0 200 200" fill="none" xmlns="http://www.w3.org/2000/svg">
<circle cx="100" cy="100" r="94" fill="#006AFF"/>
<path d="M131.51 112.079C127.64 109.871 123.273 109.214 118.945 109.05C115.345 108.944 109.941 106.573 109.941 99.9989C109.941 95.0986 113.897 91.1428 118.999 90.9477C123.328 90.7835 127.695 90.1264 131.562 87.8987C142.488 81.5885 146.249 67.6131 139.939 56.6729C133.577 45.7259 119.571 42.0028 108.607 48.3335C101.516 52.3954 97.1499 59.9717 97.1807 68.1366C97.1807 72.5715 98.7685 76.6369 100.781 80.4524C102.478 83.6246 103.296 89.5584 97.5366 92.8914C93.2077 95.369 87.8078 93.8222 85.1352 89.5071C82.8733 85.8524 80.1425 82.4475 76.2756 80.2403C65.3355 73.913 51.3258 77.6703 45.0532 88.5797C38.7602 99.5267 42.5038 113.495 53.444 119.806C60.5207 123.867 69.216 123.867 76.2928 119.806C80.1425 117.591 82.8733 114.19 85.1352 110.539C86.9865 107.558 91.6747 103.746 97.5366 107.148C101.872 109.608 103.207 115.083 100.781 119.607C98.7856 123.347 97.1807 127.467 97.1807 131.902C97.1807 144.523 107.416 154.734 120.029 154.751C132.65 154.751 142.861 144.523 142.878 131.902C142.916 123.741 138.584 116.164 131.507 112.082L131.51 112.079Z" fill="white"/>
</svg>
