<?xml version="1.0" encoding="UTF-8"?>
<svg version="1.1" xmlns="http://www.w3.org/2000/svg" width="64" height="64">
<path d="M0 0 C7.5497826 4.75848974 13.81041756 11.17266299 16.1875 19.9375 C17.37785432 29.25957637 17.89383554 39.77039501 12.7265625 47.96875 C7.2575883 54.96459516 1.15098385 61.04831901 -8.05712891 62.22412109 C-19.46222613 63.11071275 -28.55450378 62.61140974 -37.78125 55.3984375 C-44.01557838 49.82452527 -47.64109598 43.58489687 -48.29296875 35.19921875 C-48.79361794 23.51520843 -47.61548394 15.06222374 -39.625 6.125 C-29.18451527 -3.20950118 -13.06383015 -6.04026555 0 0 Z " fill="#026BFF" transform="translate(47.8125,2.0625)"/>
<path d="M0 0 C2.4375 1 2.4375 1 4 3 C4.45261938 6.16833566 4.70407682 7.99553424 4 11 C1.10425444 14.14395232 -1.9888333 15.62474285 -6 17 C-5.67 17.99 -5.34 18.98 -5 20 C-2.68895182 21.05047644 -0.35416349 22.05007438 2 23 C4 25 4 25 4.375 28.375 C4 32 4 32 2.4375 34.4375 C-0.96719488 36.61999672 -3.03430012 36.63734462 -7 36 C-9.5 34.1875 -9.5 34.1875 -11 31 C-11.02095239 27.27047395 -10.59261782 23.67809538 -10 20 C-13.88961658 21.39605799 -13.88961658 21.39605799 -16.875 24.1875 C-19 26 -19 26 -22.5625 26 C-26 25 -26 25 -27.9375 23.375 C-29.45259656 19.98831357 -29.52368962 17.66582737 -29 14 C-26.61186047 11.33893024 -24.98446115 10.22150376 -21.5 9.4375 C-17.94958204 10.23634404 -16.46780732 12.40563845 -14 15 C-11.9173394 15.6840936 -11.9173394 15.6840936 -10 16 C-10.11859375 15.18015625 -10.2371875 14.3603125 -10.359375 13.515625 C-10.48828125 12.43796875 -10.6171875 11.3603125 -10.75 10.25 C-10.88921875 9.18265625 -11.0284375 8.1153125 -11.171875 7.015625 C-11 4 -11 4 -9.234375 1.63671875 C-6.03412322 -0.70752163 -3.87228552 -0.48403569 0 0 Z " fill="#F3F8FF" transform="translate(42,14)"/>
</svg>
