<svg width="24" height="24" viewBox="0 0 24 24" fill="none" xmlns="http://www.w3.org/2000/svg">
<rect width="24" height="24" rx="12" fill="#010101"/>
<path d="M16.5373 15.928L14.1651 12.2764L14.2309 12.276C15.1198 12.2771 15.8406 11.5369 15.8406 10.6235V8.3051C15.8406 7.41066 15.1351 6.68555 14.2646 6.68555H7.64176C7.54287 6.68555 7.46265 6.76799 7.46265 6.86955V8.83132C7.46265 8.93288 7.54287 9.01532 7.64176 9.01532H12.8029C12.9018 9.01532 12.982 9.09777 12.982 9.19932V9.97221C12.982 10.074 12.9018 10.1564 12.8029 10.1564H7.62331C7.53465 10.1564 7.46265 10.2302 7.46265 10.3215V15.9427H7.76242H10.3198L10.3213 12.276H10.8558C10.9155 12.276 10.9711 12.3064 11.0044 12.3573L13.3375 15.9427H14.0093L14.9733 15.9422V15.9427H15.2731V15.942L16.2371 15.9415V15.9424H16.5369V15.9278L16.5373 15.928Z" fill="white"/>
<path d="M7.69266 17.4688V15.9426H7.46243V17.4688C7.33132 17.5162 7.23688 17.6406 7.23688 17.7882C7.23688 17.9762 7.38932 18.1288 7.57754 18.1288C7.76577 18.1288 7.91821 17.9764 7.91821 17.7882C7.91821 17.6406 7.82399 17.5162 7.69266 17.4688Z" fill="white"/>
<path d="M10.3191 17.4688L10.3198 15.9426H10.0889V17.4691C9.95799 17.5164 9.86377 17.6408 9.86377 17.7882C9.86377 17.9762 10.0162 18.1288 10.2044 18.1288C10.3927 18.1288 10.5451 17.9764 10.5451 17.7882C10.5451 17.6406 10.4507 17.5162 10.3193 17.4688H10.3191Z" fill="white"/>
<path d="M9.00619 18.6546V15.9426H8.77597V18.6546C8.64486 18.702 8.55042 18.8264 8.55042 18.974C8.55042 19.162 8.70286 19.3146 8.89108 19.3146C9.0793 19.3146 9.23175 19.1622 9.23175 18.974C9.23175 18.8264 9.13753 18.702 9.00619 18.6546Z" fill="white"/>
<path d="M13.568 17.4688V15.9426H13.3378V17.4688C13.2067 17.5162 13.1122 17.6406 13.1122 17.7882C13.1122 17.9762 13.2647 18.1288 13.4529 18.1288C13.6411 18.1288 13.7936 17.9764 13.7936 17.7882C13.7936 17.6406 13.6994 17.5162 13.568 17.4688Z" fill="white"/>
<path d="M16.5373 17.4688V15.9426H16.3071V17.4688C16.176 17.5162 16.0815 17.6406 16.0815 17.7882C16.0815 17.9762 16.234 18.1288 16.4222 18.1288C16.6104 18.1288 16.7629 17.9764 16.7629 17.7882C16.7629 17.6406 16.6687 17.5162 16.5373 17.4688Z" fill="white"/>
<path d="M15.0387 18.6546V15.9426H14.8085V18.6546C14.6774 18.702 14.5831 18.8264 14.5831 18.9737C14.5831 19.1617 14.7356 19.3144 14.9238 19.3144C15.112 19.3144 15.2645 19.162 15.2645 18.9737C15.2645 18.8262 15.17 18.7017 15.0387 18.6544V18.6546Z" fill="white"/>
</svg>
