<?xml version="1.0" encoding="UTF-8"?>
<svg version="1.1" xmlns="http://www.w3.org/2000/svg" width="240" height="241">
<path d="M0 0 C1.67703266 1.46740358 3.34418034 2.94620088 5 4.4375 C5.825 5.12070312 6.65 5.80390625 7.5 6.5078125 C28.86553968 24.60175392 42.75829067 52.81505494 46 80.4375 C48.12866787 114.80028136 41.34423744 147.03738576 18.4296875 173.7578125 C-3.06516949 197.46435895 -30.70291999 213.82290948 -63.28125 216.30859375 C-97.17661732 217.91570168 -128.53893159 208.66259937 -154.1875 185.9375 C-155.79768303 184.44396015 -157.40221151 182.94429216 -159 181.4375 C-159.67675781 180.82519531 -160.35351562 180.21289062 -161.05078125 179.58203125 C-173.67660839 167.71527187 -182.76783611 151.73502662 -188.3125 135.4375 C-188.65812988 134.42574707 -188.65812988 134.42574707 -189.01074219 133.39355469 C-192.93887751 121.10154826 -194.53969557 109.05522042 -194.4375 96.1875 C-194.43445862 95.5162912 -194.43141724 94.8450824 -194.42828369 94.15353394 C-194.35297538 82.85678484 -193.3705608 72.2443285 -190 61.4375 C-189.78569336 60.7470459 -189.57138672 60.0565918 -189.35058594 59.34521484 C-184.49500241 44.26604824 -177.08944465 30.657122 -167 18.4375 C-166.20207031 17.46296875 -165.40414062 16.4884375 -164.58203125 15.484375 C-124.1030321 -31.30224429 -48.55179492 -39.11496717 0 0 Z " fill="#ADCAD6" transform="translate(194,24.5625)"/>
<path d="M0 0 C3.27225412 1.09075137 3.64173678 1.51488871 5.49609375 4.21875 C5.96587646 4.89478271 6.43565918 5.57081543 6.91967773 6.26733398 C7.67099976 7.37250366 7.67099976 7.37250366 8.4375 8.5 C9.52066846 10.06391629 10.60400639 11.62771521 11.6875 13.19140625 C12.23921875 13.99336426 12.7909375 14.79532227 13.359375 15.62158203 C15.85913422 19.24548892 18.39687028 22.84218161 20.9375 26.4375 C21.67504517 27.48357422 21.67504517 27.48357422 22.42749023 28.55078125 C26.62134935 34.48975891 30.87840645 40.38192842 35.14428711 46.26928711 C39.2992464 52.01062907 43.39341416 57.79257661 47.46948242 63.59008789 C51.21016 68.90208458 55.00301047 74.17469185 58.8125 79.4375 C59.35793457 80.19434082 59.90336914 80.95118164 60.46533203 81.73095703 C62.75705344 84.91043077 65.05321724 88.08332384 67.41015625 91.21484375 C68.05855469 92.09269531 68.70695313 92.97054687 69.375 93.875 C69.91898438 94.59429687 70.46296875 95.31359375 71.0234375 96.0546875 C72 98 72 98 71.79296875 100.1171875 C70.55964353 103.04557546 68.27963234 104.87159634 66 107 C64.66262016 108.32927451 63.32955799 109.66290198 62 111 C45 128 45 128 42.65098572 130.30192566 C40.00412427 132.92518161 40.00412427 132.92518161 37.79347229 135.63032532 C33.49254398 140.55530003 30.33562195 143.5787272 23.68334961 144.27807617 C21.34040825 144.33666821 18.99556456 144.33905009 16.65234375 144.29296875 C15.40046768 144.30016434 14.14859161 144.30735992 12.85877991 144.31477356 C9.5544465 144.31779973 6.2549487 144.2729874 2.95135498 144.21124268 C0.9362312 144.18748504 -1.07504925 144.20082231 -3.09008789 144.22827148 C-6.99022034 144.27814774 -10.88494145 144.26470994 -14.78515625 144.23046875 C-16.57144188 144.25309029 -16.57144188 144.25309029 -18.39381409 144.27616882 C-24.92882424 144.09315249 -28.44713304 143.27387281 -33.16577148 138.5871582 C-34.46923908 137.07969238 -35.75119605 135.55305172 -37 134 C-39.90138181 131.02785278 -42.86487607 128.22061034 -46 125.5 C-51.73671963 120.51108368 -56.74217956 115.05198763 -61.76953125 109.359375 C-63.64362954 107.37696631 -65.42266946 105.83116039 -67.625 104.25 C-68.40875 103.5075 -69.1925 102.765 -70 102 C-70.12243853 95.78389007 -66.17650708 91.66864005 -62.5625 87 C-61.27651818 85.29880084 -59.99136685 83.59697358 -58.70703125 81.89453125 C-57.75691162 80.64470459 -57.75691162 80.64470459 -56.78759766 79.36962891 C-54.38345987 76.18271804 -52.05664293 72.94534557 -49.75 69.6875 C-49.15336548 68.84795776 -49.15336548 68.84795776 -48.54467773 67.99145508 C-47.75488915 66.88006238 -46.96557545 65.76833205 -46.17675781 64.65625 C-44.98337296 62.97659796 -43.78545768 61.30027517 -42.5859375 59.625 C-38.09396718 53.35128343 -33.62914579 47.05945188 -29.1875 40.75 C-24.42222143 33.98404371 -19.59742216 27.26310881 -14.74414062 20.56005859 C-9.79833931 13.7287832 -4.89256442 6.86946969 0 0 Z " fill="#020405" transform="translate(119,49)"/>
<path d="M0 0 C3.51031284 1.17010428 3.93505103 1.97136326 5.92578125 4.97265625 C6.47556641 5.79056641 7.02535156 6.60847656 7.59179688 7.45117188 C8.44354492 8.7437793 8.44354492 8.7437793 9.3125 10.0625 C12.92232259 15.47932532 16.55584535 20.83249921 20.49731445 26.0144043 C23.20390234 29.59079411 25.81497591 33.23676445 28.4375 36.875 C29.28900635 38.05582153 29.28900635 38.05582153 30.15771484 39.26049805 C41.08593402 54.43579925 41.08593402 54.43579925 45 61 C37.07601329 72.13107971 27.85661469 84.10869609 13.83665466 87.02064514 C1.01362607 88.95672672 -13.99054956 89.17206395 -24.93727112 81.38395691 C-31.46500035 76.16970178 -38.18917279 69.48991707 -42 62 C-41.85256022 58.10005154 -40.41030695 55.76513665 -38.0859375 52.70703125 C-37.49312988 51.91683594 -36.90032227 51.12664062 -36.28955078 50.3125 C-35.65774902 49.4875 -35.02594727 48.6625 -34.375 47.8125 C-33.08772196 46.1008766 -31.80125395 44.38864366 -30.515625 42.67578125 C-29.90138672 41.86189941 -29.28714844 41.04801758 -28.65429688 40.20947266 C-26.2065567 36.94028012 -23.88072727 33.59307186 -21.55859375 30.234375 C-19.15570807 26.78963664 -16.66768852 23.40779249 -14.19140625 20.015625 C-11.65272825 16.52211446 -9.13571428 13.0136367 -6.625 9.5 C-6.19598389 8.90026367 -5.76696777 8.30052734 -5.32495117 7.68261719 C-3.51269386 5.14379333 -1.73045326 2.59567988 0 0 Z " fill="#ACC9D4" transform="translate(119,86)"/>
<path d="M0 0 C0.33 0.66 0.66 1.32 1 2 C0 5 0 5 -2 7 C-2.33 7.66 -2.66 8.32 -3 9 C-3.66 9 -4.32 9 -5 9 C-5.33 9.66 -5.66 10.32 -6 11 C-7.32 10.67 -8.64 10.34 -10 10 C-9.0925 9.278125 -8.185 8.55625 -7.25 7.8125 C-4.4298006 5.47347206 -2.19093342 2.94933345 0 0 Z " fill="#97ADB4" transform="translate(179,161)"/>
<path d="M0 0 C0.33 0.99 0.66 1.98 1 3 C-0.16018481 5.32036962 -1.22202159 7.09502313 -3 9 C-5.6875 9.25 -5.6875 9.25 -8 9 C-7.04270084 7.87411986 -6.08412105 6.7493285 -5.125 5.625 C-4.59132812 4.99851563 -4.05765625 4.37203125 -3.5078125 3.7265625 C-2.38567993 2.44163349 -1.20628025 1.20628025 0 0 Z " fill="#91A7AE" transform="translate(157,183)"/>
<path d="M0 0 C0.99 0.33 1.98 0.66 3 1 C2 4 2 4 0 5 C-1.13350534 7.01669827 -1.13350534 7.01669827 -2 9 C-2.66 8.67 -3.32 8.34 -4 8 C-3.67 7.34 -3.34 6.68 -3 6 C-3.66 5.67 -4.32 5.34 -5 5 C-3.35 3.35 -1.7 1.7 0 0 Z " fill="#98B0B6" transform="translate(185,155)"/>
<path d="M0 0 C0.33 0 0.66 0 1 0 C1 1.65 1 3.3 1 5 C5.62 5 10.24 5 15 5 C15 5.33 15 5.66 15 6 C12.56131832 6.1079859 10.12740867 6.18726589 7.6875 6.25 C6.99720703 6.28351563 6.30691406 6.31703125 5.59570312 6.3515625 C3.57421875 6.390625 3.57421875 6.390625 0 6 C-1.98046875 3.984375 -1.98046875 3.984375 -3 2 C-2.01 2 -1.02 2 0 2 C0 1.34 0 0.68 0 0 Z " fill="#ACC3CA" transform="translate(99,164)"/>
<path d="M0 0 C1.14926266 0.95421808 2.29430541 1.91352045 3.4375 2.875 C4.07558594 3.40867188 4.71367188 3.94234375 5.37109375 4.4921875 C7 6 7 6 8 8 C6.35 7.67 4.7 7.34 3 7 C3 6.01 3 5.02 3 4 C2.01 4.33 1.02 4.66 0 5 C0 3.35 0 1.7 0 0 Z " fill="#8EA2A7" transform="translate(52,153)"/>
<path d="M0 0 C3 1 3 1 4.1875 3.0625 C4.455625 3.701875 4.72375 4.34125 5 5 C4.4225 4.79375 3.845 4.5875 3.25 4.375 C0.48032433 3.91338739 -0.64561267 4.57055055 -3 6 C-2 4 -1 2 0 0 Z " fill="#A7B2BC" transform="translate(119,86)"/>
<path d="M0 0 C0.66 0.99 1.32 1.98 2 3 C0.71034824 4.37562854 -0.62689293 5.70766393 -2 7 C-2.66 7 -3.32 7 -4 7 C-2.92598892 4.08482708 -2.22189824 2.22189824 0 0 Z " fill="#A8BEC7" transform="translate(98,116)"/>
<path d="M0 0 C1.98 1.65 3.96 3.3 6 5 C2.25 6.125 2.25 6.125 0 5 C0 3.35 0 1.7 0 0 Z " fill="#8AA0A7" transform="translate(81,182)"/>
<path d="M0 0 C0.66 1.65 1.32 3.3 2 5 C1.01 5.33 0.02 5.66 -1 6 C-1.99 4.35 -2.98 2.7 -4 1 C-2 0 -2 0 0 0 Z " fill="#A2BAC0" transform="translate(178,123)"/>
</svg>
