<svg width="24" height="24" viewBox="0 0 24 24" fill="none" xmlns="http://www.w3.org/2000/svg">
<rect width="24" height="24" rx="12" fill="white"/>
<path fill-rule="evenodd" clip-rule="evenodd" d="M12 1C18.0753 1 23 5.92475 23 12C23 18.0748 18.0753 23 12 23C5.92475 23 1 18.0748 1 12C1 5.92475 5.92475 1 12 1Z" fill="#2775CA"/>
<path fill-rule="evenodd" clip-rule="evenodd" d="M9.93793 19.648C9.93793 19.9067 9.7353 20.0537 9.48505 19.9756C6.15918 18.9146 3.7478 15.796 3.7478 12.1162C3.7478 8.43662 6.15918 5.31787 9.48505 4.25687C9.7353 4.17925 9.93793 4.32574 9.93793 4.58449V5.22324C9.93793 5.39549 9.80443 5.59824 9.6403 5.65437C7.00893 6.62062 5.12393 9.14849 5.12393 12.1119C5.12393 15.0752 7.00893 17.6036 9.6403 18.5694C9.80443 18.6299 9.93793 18.8281 9.93793 19.001V19.648Z" fill="white"/>
<path fill-rule="evenodd" clip-rule="evenodd" d="M12.6856 17.271C12.6856 17.461 12.5303 17.6163 12.3406 17.6163H11.6546C11.4648 17.6163 11.3096 17.461 11.3096 17.271V16.1842C9.8083 15.9815 9.07518 15.1402 8.87668 13.9972C8.84205 13.8028 8.9973 13.626 9.1958 13.626H9.98093C10.1448 13.626 10.2829 13.7427 10.3174 13.9063C10.4642 14.5879 10.8567 15.1099 12.0601 15.1099C12.9487 15.1099 13.5787 14.6138 13.5787 13.8722C13.5787 13.1299 13.2076 12.8497 11.9048 12.6338C9.98093 12.375 9.0708 11.7925 9.0708 10.2828C9.0708 9.11817 9.95093 8.21242 11.3139 8.01817V6.95267C11.3139 6.7628 11.4693 6.60742 11.6589 6.60742H12.3449C12.5347 6.60742 12.6899 6.7628 12.6899 6.95267V8.04842C13.7986 8.24717 14.5017 8.87655 14.7304 9.92042C14.7734 10.1192 14.6182 10.3043 14.4156 10.3043H13.6907C13.5354 10.3043 13.4061 10.2007 13.3587 10.0498C13.1646 9.3858 12.6899 9.10117 11.8659 9.10117C10.9558 9.10117 10.4856 9.54105 10.4856 10.1578C10.4856 10.8092 10.7532 11.1368 12.1509 11.3399C14.0401 11.5987 15.0152 12.1378 15.0152 13.7472C15.0152 14.9678 14.1092 15.9557 12.6899 16.1842V17.271H12.6856Z" fill="white"/>
<path fill-rule="evenodd" clip-rule="evenodd" d="M14.5149 19.9756C14.2649 20.0537 14.062 19.9067 14.062 19.648V19.0097C14.062 18.8198 14.1785 18.6431 14.3596 18.5781C16.991 17.6118 18.876 15.084 18.876 12.1206C18.876 9.15721 16.991 6.62933 14.3596 5.66308C14.1958 5.60258 14.062 5.40433 14.062 5.23146V4.59321C14.062 4.33446 14.2649 4.18358 14.5149 4.26508C17.8408 5.32671 20.2521 8.44533 20.2521 12.125C20.248 15.7958 17.8408 18.9102 14.5149 19.9756Z" fill="white"/>
</svg>
