<svg width="249" height="249" viewBox="0 0 249 249" fill="none" xmlns="http://www.w3.org/2000/svg">
<g clip-path="url(#clip0_201_5795)">
<path d="M98.1821 144.121L77.6532 76.2886C77.3686 75.3448 76.5149 74.7 75.5387 74.7L47.9676 74.7901C46.4835 74.7901 45.4352 76.2742 45.8711 77.7114L77.1309 181.015C77.4155 181.959 78.2692 182.604 79.231 182.604H86.5218L98.1857 144.121H98.1821Z" fill="#FAFAFA"/>
<path d="M157.65 74.8192H130.05C129.2 74.8192 128.433 75.3271 128.069 76.1016L110.473 134.147L104.907 152.54C104.896 152.572 104.882 152.601 104.871 152.634L95.7864 182.6H126.391C127.349 182.6 128.206 181.956 128.491 181.012L159.75 77.7406C160.186 76.2889 159.134 74.8192 157.65 74.8192Z" fill="#FAFAFA"/>
<path d="M199.083 74.8192H171.484C170.633 74.8192 169.866 75.3271 169.502 76.1016L151.906 134.147L146.34 152.54C146.329 152.572 146.315 152.601 146.304 152.634L137.219 182.6H167.824C168.782 182.6 169.639 181.956 169.924 181.012L201.18 77.7406C201.616 76.2889 200.564 74.8192 199.08 74.8192H199.083Z" fill="#FAFAFA"/>
</g>
<defs>
<clipPath id="clip0_201_5795">
<rect width="155.51" height="107.9" fill="white" transform="translate(45.7695 74.7)"/>
</clipPath>
</defs>
</svg>
