<svg width="24" height="24" viewBox="0 0 24 24" fill="none" xmlns="http://www.w3.org/2000/svg">
<rect width="24" height="24" rx="12" fill="#0030CF"/>
<path fill-rule="evenodd" clip-rule="evenodd" d="M20.5878 10.2736C21.0992 9.71787 21.0573 8.85812 20.4946 8.35325C19.9319 7.8484 19.0611 7.8896 18.5499 8.4453L14.883 12.4306L13.4005 10.8935C12.8762 10.3499 12.0047 10.3289 11.4541 10.8467C10.9035 11.3645 10.8823 12.2249 11.4067 12.7686L13.9099 15.3639C14.1735 15.6373 14.5406 15.7901 14.923 15.7857C15.3053 15.7812 15.6687 15.62 15.9257 15.3405L20.5878 10.2736ZM10.2092 13.6858L8.6119 12.0944L10.2092 10.5031C10.5545 10.162 10.7272 9.87311 10.7272 9.63631C10.7272 9.39004 10.5545 9.09638 10.2092 8.75538C9.86379 8.41438 9.5712 8.24387 9.33139 8.24387C9.09156 8.24387 8.79897 8.41438 8.45363 8.75538L6.87078 10.3467L5.27355 8.75538C4.92821 8.41438 4.63561 8.24387 4.39578 8.24387C4.16554 8.24387 3.87296 8.41438 3.51801 8.75538C3.17267 9.09638 3 9.39004 3 9.63631C3 9.87311 3.17267 10.162 3.51801 10.5031L5.11527 12.0944L3.51801 13.6858C3.17267 14.0267 3 14.3204 3 14.5667C3 14.8035 3.17267 15.0924 3.51801 15.4334C3.87296 15.7649 4.16554 15.9307 4.39578 15.9307C4.63561 15.9307 4.92821 15.7602 5.27355 15.4192L6.87078 13.8421L8.45363 15.4192C8.79897 15.7602 9.09156 15.9307 9.33139 15.9307C9.5712 15.9307 9.86379 15.7649 10.2092 15.4334C10.5545 15.0924 10.7272 14.8035 10.7272 14.5667C10.7272 14.3204 10.5545 14.0267 10.2092 13.6858Z" fill="white"/>
</svg>
