<?xml version="1.0" encoding="UTF-8"?>
<svg version="1.1" xmlns="http://www.w3.org/2000/svg" width="80" height="80">
<path d="M0 0 C0 1.65 0 3.3 0 5 C1.32 4.67 2.64 4.34 4 4 C3.67 5.98 3.34 7.96 3 10 C3.58007812 10.02578125 4.16015625 10.0515625 4.7578125 10.078125 C13.01386213 10.67757415 17.87768847 14.31728566 23.59375 20.12109375 C25.67256496 22.89862152 25.79646538 25.60775627 26 29 C26.66 29.33 27.32 29.66 28 30 C30.95135948 36.2306478 30.96431562 43.31174128 29.2421875 49.8984375 C27.44873817 54.82689274 27.44873817 54.82689274 26 57 C23.859375 57.7734375 23.859375 57.7734375 22 58 C22 58.99 22 59.98 22 61 C21.34 61 20.68 61 20 61 C20 61.66 20 62.32 20 63 C19.34 63 18.68 63 18 63 C18 63.66 18 64.32 18 65 C17.34 65 16.68 65 16 65 C16 65.66 16 66.32 16 67 C10.29247323 70.27654314 4.72870388 72.65733342 -2 72 C-3.79296875 70.50390625 -3.79296875 70.50390625 -5 69 C-5.33 69.99 -5.66 70.98 -6 72 C-12.89203498 70.79662881 -18.06080693 68.67864914 -24 65 C-24 64.34 -24 63.68 -24 63 C-24.66 63 -25.32 63 -26 63 C-27.6875 61.375 -27.6875 61.375 -29 59 C-28.6875 55.8125 -28.6875 55.8125 -28 53 C-28 52.67 -28 52.34 -28 52 C-29.98 52.495 -29.98 52.495 -32 53 C-35.20318664 43.99103758 -34.95121247 35.69266742 -31 27 C-30.67 26.34 -30.34 25.68 -30 25 C-29.34 25 -28.68 25 -28 25 C-27.979375 24.319375 -27.95875 23.63875 -27.9375 22.9375 C-26.52018376 18.49657577 -23.61437742 15.85721535 -20 13 C-18.0859375 12.0625 -18.0859375 12.0625 -16.25 11.375 C-12.37393626 9.73512688 -12.08761379 8.50719117 -10 5 C-3.43324251 0 -3.43324251 0 0 0 Z M-5 15 C-4.67 15.66 -4.34 16.32 -4 17 C-3.34 17 -2.68 17 -2 17 C-2 16.34 -2 15.68 -2 15 C-2.99 15 -3.98 15 -5 15 Z M-24 24 C-24 24.33 -24 24.66 -24 25 C-20.7 25 -17.4 25 -14 25 C-14 24.67 -14 24.34 -14 24 C-17.3 24 -20.6 24 -24 24 Z M-12 25 C-11.34 26.32 -10.68 27.64 -10 29 C-10.79664063 29.67095703 -10.79664063 29.67095703 -11.609375 30.35546875 C-15.47888319 33.66714638 -18.98587305 36.85557544 -22 41 C-21.67 41.66 -21.34 42.32 -21 43 C-19.35 41.68 -17.7 40.36 -16 39 C-16.061875 39.969375 -16.12375 40.93875 -16.1875 41.9375 C-16.21625881 46.61559946 -14.64771207 50.67475582 -13 55 C-12.01 54.34 -11.02 53.68 -10 53 C-7.51171875 53.6796875 -7.51171875 53.6796875 -4.6875 54.875 C-0.59979843 56.49056375 2.54043919 57.48211468 7 57 C6.01 55.68 5.02 54.36 4 53 C4.73605469 52.75507812 5.47210938 52.51015625 6.23046875 52.2578125 C9.30006284 50.86372322 10.99905253 49.3060804 13.3125 46.875 C14.00988281 46.15054688 14.70726562 45.42609375 15.42578125 44.6796875 C16.20501953 43.84824219 16.20501953 43.84824219 17 43 C16.505 42.01 16.505 42.01 16 41 C14.02 41.99 14.02 41.99 12 43 C12.02320313 42.34773438 12.04640625 41.69546875 12.0703125 41.0234375 C12.17583753 35.91301097 12.01926302 31.79574967 10 27 C9.319375 27.165 8.63875 27.33 7.9375 27.5 C1.21044136 28.64503126 -2.96940953 27.78334945 -9 25 C-9.99 25 -10.98 25 -12 25 Z M-23 43 C-23.33 43.66 -23.66 44.32 -24 45 C-23.34 45 -22.68 45 -22 45 C-22.33 44.34 -22.66 43.68 -23 43 Z M-26 47 C-25 49 -25 49 -25 49 Z M-12 56 C-11 58 -11 58 -11 58 Z M-11 58 C-10 60 -10 60 -10 60 Z " fill="#FE7C26" transform="translate(42,3)"/>
<path d="M0 0 C0.66 0.33 1.32 0.66 2 1 C4.09821215 0.60061233 4.09821215 0.60061233 6 0 C5.67 1.98 5.34 3.96 5 6 C5.58007812 6.02578125 6.16015625 6.0515625 6.7578125 6.078125 C15.01386213 6.67757415 19.87768847 10.31728566 25.59375 16.12109375 C27.67256496 18.89862152 27.79646538 21.60775627 28 25 C28.66 25.33 29.32 25.66 30 26 C32.95135948 32.2306478 32.96431562 39.31174128 31.2421875 45.8984375 C29.44873817 50.82689274 29.44873817 50.82689274 28 53 C25.859375 53.7734375 25.859375 53.7734375 24 54 C24 54.99 24 55.98 24 57 C23.34 57 22.68 57 22 57 C22 57.66 22 58.32 22 59 C21.34 59 20.68 59 20 59 C20 59.66 20 60.32 20 61 C19.34 61 18.68 61 18 61 C18 61.66 18 62.32 18 63 C12.29247323 66.27654314 6.72870388 68.65733342 0 68 C-1.79296875 66.75390625 -1.79296875 66.75390625 -3 65 C-3 63.68 -3 62.36 -3 61 C-3.99 60.67 -4.98 60.34 -6 60 C-6.73046875 57.93359375 -6.73046875 57.93359375 -7.1875 55.4375 C-7.34605469 54.61121094 -7.50460938 53.78492188 -7.66796875 52.93359375 C-7.77753906 52.29550781 -7.88710938 51.65742187 -8 51 C-2.84828377 50.90961901 1.91913204 51.15318867 7 52 C6.505 50.515 6.505 50.515 6 49 C6.54269531 48.61328125 7.08539063 48.2265625 7.64453125 47.828125 C8.71767578 47.04695313 8.71767578 47.04695313 9.8125 46.25 C10.52019531 45.73953125 11.22789063 45.2290625 11.95703125 44.703125 C14.02977691 42.97517642 15.47375854 41.21473524 17 39 C16.01 39 15.02 39 14 39 C13.87882812 37.85660156 13.75765625 36.71320312 13.6328125 35.53515625 C13.46402679 34.04421583 13.29472953 32.55333327 13.125 31.0625 C13.04636719 30.30775391 12.96773437 29.55300781 12.88671875 28.77539062 C12.66116192 26.84080701 12.33741026 24.91823981 12 23 C11.34 22.67 10.68 22.34 10 22 C11.32 21.34 12.64 20.68 14 20 C13.52949219 19.62488281 13.05898438 19.24976562 12.57421875 18.86328125 C8.86147311 15.81160419 6.42233307 13.18402986 4 9 C1.42816686 6.72462308 1.42816686 6.72462308 -1 5 C-0.67 3.35 -0.34 1.7 0 0 Z " fill="#FF8415" transform="translate(40,7)"/>
<path d="M0 0 C0 1.32 0 2.64 0 4 C-0.66 4 -1.32 4 -2 4 C-2.50379029 6.28694223 -2.50379029 6.28694223 -2 9 C-0.56575409 10.27126342 0.88084802 11.53494654 2.41796875 12.6796875 C4.84268183 14.70327521 6.27071327 17.37817818 8 20 C10.6091387 22.32277416 10.6091387 22.32277416 13 24 C7.98845179 27.64476234 4.42045215 29.93388395 -2 29 C-4.45347617 28.15331019 -6.65985515 27.14619339 -9 26 C-9 25.34 -9 24.68 -9 24 C-14.94 24 -20.88 24 -27 24 C-23.69689748 17.39379496 -21.51449831 13.96985521 -14.80859375 10.9921875 C-12.24154712 9.5839157 -11.46099183 7.49586104 -10 5 C-3.42896175 0 -3.42896175 0 0 0 Z M-5 15 C-4.67 15.66 -4.34 16.32 -4 17 C-3.34 17 -2.68 17 -2 17 C-2 16.34 -2 15.68 -2 15 C-2.99 15 -3.98 15 -5 15 Z " fill="#FF6D20" transform="translate(42,3)"/>
<path d="M0 0 C0.66 0.33 1.32 0.66 2 1 C4.09821215 0.60061233 4.09821215 0.60061233 6 0 C5.67 1.98 5.34 3.96 5 6 C5.58007812 6.02578125 6.16015625 6.0515625 6.7578125 6.078125 C15.01386213 6.67757415 19.87768847 10.31728566 25.59375 16.12109375 C27.67256496 18.89862152 27.79646538 21.60775627 28 25 C28.66 25.33 29.32 25.66 30 26 C32.52887096 31.33872758 32.61907715 37.20070376 32 43 C31.34 43.99 30.68 44.98 30 46 C30.02320312 45.09636719 30.04640625 44.19273438 30.0703125 43.26171875 C30.08835937 42.08222656 30.10640625 40.90273438 30.125 39.6875 C30.14820312 38.51574219 30.17140625 37.34398437 30.1953125 36.13671875 C30.25320618 32.83606339 30.25320618 32.83606339 28 30 C26.85157077 31.28935919 25.70633773 32.58156579 24.5625 33.875 C23.92441406 34.59429687 23.28632812 35.31359375 22.62890625 36.0546875 C20.94985535 37.90750491 20.94985535 37.90750491 20 40 C19.34 39.67 18.68 39.34 18 39 C17.67 39 17.34 39 17 39 C16.01 39 15.02 39 14 39 C13.87882812 37.85660156 13.75765625 36.71320312 13.6328125 35.53515625 C13.46402679 34.04421583 13.29472953 32.55333327 13.125 31.0625 C13.04636719 30.30775391 12.96773437 29.55300781 12.88671875 28.77539062 C12.66116192 26.84080701 12.33741026 24.91823981 12 23 C11.34 22.67 10.68 22.34 10 22 C11.32 21.34 12.64 20.68 14 20 C13.52949219 19.62488281 13.05898438 19.24976562 12.57421875 18.86328125 C8.86147311 15.81160419 6.42233307 13.18402986 4 9 C1.42816686 6.72462308 1.42816686 6.72462308 -1 5 C-0.67 3.35 -0.34 1.7 0 0 Z " fill="#FF9014" transform="translate(40,7)"/>
<path d="M0 0 C1.875 0.125 1.875 0.125 4 1 C6.70135983 6.13258367 6.60562792 12.32669139 6 18 C5.34 18.99 4.68 19.98 4 21 C4.02320312 20.09636719 4.04640625 19.19273438 4.0703125 18.26171875 C4.08835937 17.08222656 4.10640625 15.90273438 4.125 14.6875 C4.14820312 13.51574219 4.17140625 12.34398437 4.1953125 11.13671875 C4.25320618 7.83606339 4.25320618 7.83606339 2 5 C0.85157077 6.28935919 -0.29366227 7.58156579 -1.4375 8.875 C-2.07558594 9.59429687 -2.71367188 10.31359375 -3.37109375 11.0546875 C-5.05014465 12.90750491 -5.05014465 12.90750491 -6 15 C-6.66 14.67 -7.32 14.34 -8 14 C-7.67 13.38125 -7.34 12.7625 -7 12.125 C-5.85806765 10.08981656 -5.85806765 10.08981656 -6 8 C-5.01 7.34 -4.02 6.68 -3 6 C-2.67 5.01 -2.34 4.02 -2 3 C-1.34 3 -0.68 3 0 3 C0 2.01 0 1.02 0 0 Z " fill="#FFB05E" transform="translate(66,32)"/>
<path d="M0 0 C0.66 0.33 1.32 0.66 2 1 C3.32 0.67 4.64 0.34 6 0 C5.67 2.97 5.34 5.94 5 9 C0.23634558 6.5571003 0.23634558 6.5571003 -0.875 3.9375 C-1 2 -1 2 0 0 Z " fill="#FF8A4F" transform="translate(40,7)"/>
<path d="M0 0 C0 3 0 3 -2 6 C0.97 6 3.94 6 7 6 C7 6.33 7 6.66 7 7 C5.2984375 7.2165625 5.2984375 7.2165625 3.5625 7.4375 C0.19222799 7.61171478 0.19222799 7.61171478 -1 9 C-2.66617115 9.04063832 -4.33388095 9.042721 -6 9 C-5.34 8.67 -4.68 8.34 -4 8 C-3.855625 7.21625 -3.71125 6.4325 -3.5625 5.625 C-2.94615917 2.74874279 -2.22271144 1.83615293 0 0 Z " fill="#FF9456" transform="translate(18,20)"/>
<path d="M0 0 C0 3 0 3 -1.49609375 4.75390625 C-2.45708984 5.64916016 -2.45708984 5.64916016 -3.4375 6.5625 C-6.0896163 9.00289429 -6.0896163 9.00289429 -8 12 C-8.99 11.67 -9.98 11.34 -11 11 C-11 10.34 -11 9.68 -11 9 C-9.35546875 7.59765625 -9.35546875 7.59765625 -7.1875 6.0625 C-4.56469417 4.19452718 -2.21550645 2.34130807 0 0 Z " fill="#FFA14A" transform="translate(57,47)"/>
<path d="M0 0 C2.92577938 2.92577938 2.42659177 5.78336157 2.65625 9.78515625 C2.82640625 10.88150391 2.82640625 10.88150391 3 12 C3.66 12.33 4.32 12.66 5 13 C3.68 13.33 2.36 13.66 1 14 C0.67 9.38 0.34 4.76 0 0 Z " fill="#FFAC53" transform="translate(53,32)"/>
<path d="M0 0 C2.475 0.99 2.475 0.99 5 2 C3.68 2.33 2.36 2.66 1 3 C1.33 4.98 1.66 6.96 2 9 C1.34 8.67 0.68 8.34 0 8 C0 6.68 0 5.36 0 4 C-0.66 3.67 -1.32 3.34 -2 3 C-1.34 2.01 -0.68 1.02 0 0 Z " fill="#FFA767" transform="translate(31,55)"/>
<path d="M0 0 C-1.04874998 2.62187494 -1.64931313 3.79371361 -4.125 5.25 C-4.74375 5.4975 -5.3625 5.745 -6 6 C-6 6.66 -6 7.32 -6 8 C-6.66 7.67 -7.32 7.34 -8 7 C-4.13157895 0 -4.13157895 0 0 0 Z " fill="#FF884A" transform="translate(37,6)"/>
<path d="M0 0 C2 3 2 3 3 6 C3.66 6.33 4.32 6.66 5 7 C4.67 7.66 4.34 8.32 4 9 C2.35 7.68 0.7 6.36 -1 5 C-0.67 3.35 -0.34 1.7 0 0 Z " fill="#FFA271" transform="translate(40,7)"/>
</svg>
