<?xml version="1.0" encoding="UTF-8"?>
<svg width="24px" height="24px" viewBox="0 0 24 24" xmlns="http://www.w3.org/2000/svg" xmlns:xlink="http://www.w3.org/1999/xlink" version="1.1">
 <!-- Generated by Pixelmator Pro 2.0.8 -->
 <path id="Ellipse" d="M24 12 C24 5.373 18.627 0 12 0 5.373 0 0 5.373 0 12 0 18.627 5.373 24 12 24 18.627 24 24 18.627 24 12 Z" fill="#ffffff" fill-opacity="1" stroke="none"/>
 <path id="Path" d="M7.173 6.116 L7.498 6.116 7.498 5.28 7.173 5.28 C6.828 5.28 6.486 5.347 6.168 5.479 5.849 5.611 5.559 5.804 5.315 6.048 5.072 6.292 4.878 6.582 4.746 6.901 4.614 7.219 4.547 7.561 4.547 7.906 L4.547 9.811 C4.548 10.214 4.394 10.603 4.118 10.897 3.841 11.19 3.463 11.367 3.06 11.391 L3.083 11.809 3.06 12.228 C3.463 12.251 3.841 12.428 4.118 12.722 4.394 13.016 4.548 13.404 4.547 13.808 L4.547 16.003 C4.546 16.732 4.834 17.431 5.348 17.948 5.862 18.464 6.56 18.755 7.289 18.757 L7.289 17.92 C6.784 17.92 6.299 17.719 5.942 17.362 5.585 17.005 5.384 16.52 5.384 16.015 L5.384 13.808 C5.384 13.413 5.288 13.025 5.103 12.677 4.919 12.329 4.652 12.031 4.326 11.809 4.651 11.587 4.918 11.289 5.102 10.941 5.286 10.593 5.383 10.205 5.384 9.811 L5.384 7.906 C5.386 7.432 5.575 6.978 5.91 6.643 6.245 6.308 6.699 6.119 7.173 6.116 Z" fill="#000000" fill-opacity="1" stroke="none"/>
 <path id="Path-1" d="M16.839 6.116 L16.514 6.116 16.514 5.28 16.839 5.28 C17.534 5.282 18.199 5.559 18.689 6.052 19.18 6.544 19.454 7.211 19.453 7.906 L19.453 9.811 C19.452 10.214 19.606 10.603 19.882 10.897 20.159 11.19 20.537 11.367 20.94 11.391 L20.917 11.809 20.94 12.228 C20.537 12.251 20.159 12.428 19.882 12.722 19.606 13.016 19.452 13.404 19.453 13.808 L19.453 16.003 C19.454 16.732 19.166 17.431 18.652 17.948 18.138 18.464 17.44 18.755 16.711 18.757 L16.711 17.92 C17.216 17.92 17.701 17.719 18.058 17.362 18.415 17.005 18.616 16.52 18.616 16.015 L18.616 13.808 C18.616 13.413 18.712 13.025 18.897 12.677 19.081 12.329 19.348 12.031 19.674 11.809 19.349 11.587 19.082 11.289 18.898 10.941 18.714 10.593 18.617 10.205 18.616 9.811 L18.616 7.906 C18.618 7.671 18.573 7.439 18.484 7.222 18.395 7.005 18.264 6.808 18.099 6.642 17.934 6.476 17.738 6.344 17.521 6.254 17.305 6.163 17.073 6.117 16.839 6.116 Z" fill="#000000" fill-opacity="1" stroke="none"/>
 <path id="Path-2" d="M15.05 8.649 L16.293 8.649 13.702 11.077 C13.237 11.498 12.633 11.731 12.006 11.731 11.379 11.731 10.774 11.498 10.31 11.077 L7.719 8.649 8.962 8.649 10.925 10.485 C11.219 10.754 11.602 10.903 12 10.903 12.398 10.903 12.781 10.754 13.075 10.485 Z" fill="#000000" fill-opacity="1" stroke="none"/>
 <path id="Path-3" d="M8.95 15.388 L7.707 15.388 10.31 12.948 C10.772 12.522 11.377 12.286 12.006 12.286 12.634 12.286 13.24 12.522 13.702 12.948 L16.304 15.388 15.061 15.388 13.086 13.529 C12.793 13.26 12.41 13.11 12.012 13.11 11.614 13.11 11.23 13.26 10.937 13.529 Z" fill="#000000" fill-opacity="1" stroke="none"/>
</svg>

