<?xml version="1.0" encoding="UTF-8"?><svg id="Layer_1" xmlns="http://www.w3.org/2000/svg" viewBox="0 0 800 800"><defs><style>.cls-1{fill:none;stroke:#fff;stroke-miterlimit:10;stroke-width:4px;}.cls-2{fill:#fff;}</style></defs><path class="cls-1" d="M126.12,379.64c11.48-133.19,117.78-239.28,251.06-250.44"/><path class="cls-1" d="M382.7,678.41c-136.94-8.72-246.68-117.54-256.84-254.08"/><path class="cls-1" d="M674.81,427.54c-11.47,133.25-117.83,239.37-251.19,250.48"/><path class="cls-1" d="M423.62,129.19c133.34,11.1,239.7,117.22,251.18,250.45"/><path class="cls-2" d="M490.18,486.47l-77.25-1.29,129.01-223.59,3.74-6.49h-259.69l-.76,3.37-27.97,131.49-4.89,21.7,12.67-18.29,44.46-56.1h76.65l-124.94,215.53-3.76,6.49h254.92l.92-3.09,35.51-123.12,5.14-17.31-12.42,13.1-51.31,57.58ZM509.13,554.99h-244.19l128.7-222.03h-86.42l-45.75,57.96,27.97-131.49h248.74l-132.68,229.96,86.5,1.44,52.62-58.96-35.51,123.12Z"/><polygon class="cls-2" points="519.33 267.36 298.82 267.36 278.64 352.42 300.82 318.04 417.93 318.04 288.73 539.85 503.55 539.85 528.06 461.99 496.34 499.48 386.77 499.48 519.33 267.36"/><path class="cls-2" d="M721.02,365.83l-12.95-.71c-17.27-139.43-127.13-250.15-266.14-268.74l-.63-14.59-41.08-40.61-38.98,38.98-.87,16.05C221,114.21,110.65,224.77,92.97,364.25l-11.43.5-40.61,41.08,38.98,38.98,13.41.72c18.66,138.07,128.24,247.3,266.5,265.39l.32,7.28,41.07,40.61,38.98-38.98.48-8.85c138.17-17.89,247.79-126.77,266.82-264.57l11.89-.52,40.61-41.06-38.98-39ZM442.76,115.43c127.91,18.61,228.87,120.37,246.26,248.67.45,3.22.84,6.44,1.17,9.7l-29.19-1.57c-.39-3.26-.84-6.5-1.34-9.72-17.47-111.19-104.77-199.17-215.61-217.7-3.85-.65-7.73-1.21-11.63-1.67l-1.27-29.17c3.91.4,7.77.89,11.62,1.46ZM111.99,363.42c17.72-128.37,119.1-230.04,247.34-248.16,3.85-.55,7.73-1.01,11.64-1.41l-1.57,29.19c-3.92.45-7.8.99-11.66,1.64-111.11,18.18-198.74,106.17-216.39,217.46-.53,3.27-.99,6.56-1.38,9.88l-29.17,1.27c.35-3.3.73-6.59,1.2-9.86ZM358.98,691.89c-127.15-18.12-227.84-118.38-246.59-245.32-.66-4.37-1.21-8.77-1.66-13.21l29.19,1.59c.52,4.44,1.15,8.84,1.92,13.21,18.77,109.82,105.78,196.33,215.85,214.37,3.86.65,7.77,1.2,11.69,1.64l1.27,29.17c-3.92-.4-7.81-.88-11.68-1.44ZM688.43,447.25c-19.03,126.7-119.69,226.68-246.72,244.69-3.78.53-7.58.99-11.42,1.4l1.57-29.19c3.85-.46,7.65-.99,11.45-1.63,109.9-18.04,196.81-104.37,215.71-213.98.76-4.4,1.41-8.84,1.95-13.31l29.17-1.27c-.46,4.47-1.02,8.9-1.7,13.29ZM717.99,411.35h-53.42l-1.89,1.76-13.8,12.86-10.05,9.37-.97.89,9.95-.43c-.58,4.47-1.27,8.91-2.09,13.31-18.77,101.93-99.52,182.13-201.71,200.13-3.79.66-7.6,1.25-11.43,1.74l.54-10.08-15.86,11.56-8.04,8.35v54.22l-8.1,21.04-8.09-20.23v-53.42l-9.27-9.95-15.34-10.51.39,9.07c-3.92-.49-7.83-1.08-11.69-1.76-102.38-17.93-183.27-98.3-201.97-200.4-.81-4.37-1.5-8.78-2.06-13.22l10.6.58-.98-.95-10.76-10.37-13.35-12.86h-54.22l-21.03-8.09,20.23-8.1h53.42l1.23-1.15,13.77-12.82,10.9-10.15.81-.76-10.58.46c.42-3.32.91-6.6,1.47-9.88,17.57-103.6,99.05-185.45,202.45-203.62,3.85-.68,7.74-1.25,11.65-1.76l-.52,9.67,1.07-1.11,9.26-9.6,13.29-13.8.56-.58v-54.22l8.09-21.03,8.1,20.23v53.42l2.08,2.23h.01l12.89,13.84,9.05,9.7h0s.85.92.85.92l-.42-9.57c3.91.5,7.79,1.1,11.63,1.79,103.14,18.42,184.31,100.24,201.77,203.72.55,3.22,1.02,6.46,1.44,9.72l-9.96-.53,1.17,1.12,9.88,9.52h0s13.8,13.31,13.8,13.31l.25.23h54.21l21.05,8.09-20.23,8.1Z"/></svg>
