<svg xmlns="http://www.w3.org/2000/svg" xmlns:xlink="http://www.w3.org/1999/xlink">
    <defs>
      <symbol viewBox="0 0 120 22" fill="none" xmlns="http://www.w3.org/2000/svg" id="row">
        <path fill-rule="evenodd" clip-rule="evenodd" d="M114.78 12.351C116.27 12.29 117.51 11.7688 118.466 10.7895C119.483 9.75131 120 8.2697 120 6.38039C120 4.96813 119.75 3.77653 119.254 2.83713C118.756 1.88932 118.035 1.16848 117.112 0.699825C116.205 0.235377 115.097 0 113.817 0H99.4613V21.1734H108.336V13.8641H109.549L110.953 20.938L110.999 21.1734H119.996V13.2841H114.778V12.351H114.78ZM110.341 9.39825H108.34V5.62802H110.341V9.39825ZM11.2834 0.0021024C13.4375 0.0021024 15.2007 0.449738 16.5184 1.3282C17.8445 2.20876 18.8007 3.45289 19.3723 5.02277C19.9335 6.56532 20.2172 8.45674 20.2172 10.6466V10.7054C20.2172 12.973 19.9314 14.8918 19.3723 16.4049C18.8007 17.9517 17.8298 19.1454 16.4806 19.9608C15.144 20.7657 13.345 21.1755 11.1384 21.1755H0V0.0021024H11.2834ZM8.87706 15.2595H11.1972V15.2574V5.91804H8.87706V15.2595ZM21.6631 0.0021024H21.9531H38.1373H38.4273V0.29212V5.89072V6.18074H38.1373H30.2753V7.92084H37.469H37.759V8.21086V12.8511V13.1412H37.469H30.2753V14.9674H38.1373H38.4273V15.2574V20.8855V21.1755H38.1373H21.9531H21.6631V20.8855V0.29212V0.0021024ZM63.392 0.0021024H63.1019V0.29212V8.50088V8.79089H63.392H66.8428V20.8855V21.1755H67.1328H75.8333H76.1233V20.8855V8.79089H79.5762H79.8662V8.50088V0.29212V0.0021024H79.5762H63.392ZM81.3121 0.0021024H81.6021H97.7863H98.0763V0.29212V5.89072V6.18074H97.7863H89.9264V7.92084H97.1201H97.4101V8.21086V12.8511V13.1412H97.1201H89.9264V14.9674H97.7863H98.0763V15.2574V20.8855V21.1755H97.7863H81.6021H81.3121V20.8855V0.29212V0.0021024ZM50.2613 6.74186H51.6757L52.7958 0.0021024H61.6434V6.74186L56.2718 9.47391V11.7373H61.6434V21.2091H52.7958L51.6757 14.2823H50.2613L49.1433 21.2091H40.2935V14.2823L45.6673 11.7373V9.47391H40.2935V0.0021024H49.1433L50.2613 6.74186Z"  fill="currentColor" stroke="#d9f27e" stroke-width="0.1" stroke-linecap="round" stroke-linejoin="round"/>
      </symbol>
    </defs>
</svg>